<svg width="437" height="437" viewBox="0 0 437 437" fill="none" xmlns="http://www.w3.org/2000/svg">
<path d="M357.031 388.49C357.031 391.338 293.911 393.647 216.049 393.647C138.187 393.647 75.0679 391.338 75.0679 388.49C75.0679 385.641 138.187 383.332 216.049 383.332C293.911 383.332 357.031 385.641 357.031 388.49Z" fill="#B3DAC9"/>
<path d="M322.755 369.771C324.695 366.807 326.759 363.924 328.944 361.136C331.137 358.336 333.449 355.63 335.871 353.025C338.268 350.447 340.772 347.967 343.378 345.602C346.012 343.212 348.747 340.934 351.573 338.776C354.389 336.625 357.296 334.595 360.284 332.692C360.655 332.456 361.027 332.223 361.4 331.99C361.668 331.823 361.717 331.423 361.542 331.175C361.352 330.903 360.996 330.864 360.726 331.031C357.695 332.918 354.744 334.932 351.886 337.071C349.049 339.193 346.303 341.436 343.655 343.79C340.97 346.177 338.383 348.674 335.907 351.278C333.457 353.855 331.116 356.537 328.893 359.313C326.669 362.088 324.565 364.959 322.587 367.915C322.342 368.28 322.1 368.647 321.859 369.014C321.687 369.279 321.666 369.618 321.929 369.84C322.148 370.024 322.582 370.037 322.755 369.771Z" fill="#1E976F"/>
<path d="M354.186 335.925C360.287 328.858 367.642 322.876 375.804 318.343C379.061 316.534 382.584 314.921 386.309 314.894C388.046 314.881 390.266 315.815 390.056 317.539C389.986 318.114 389.638 318.613 389.28 319.068C386.088 323.132 381.42 325.732 376.795 328.039C369.381 331.735 362.01 333.199 354.186 335.925Z" fill="#1E976F"/>
<path d="M342.922 344.846C343.804 335.551 346.337 326.416 350.367 317.993C351.976 314.633 353.913 311.278 356.936 309.099C358.345 308.083 360.695 307.558 361.523 309.085C361.798 309.595 361.803 310.203 361.775 310.782C361.526 315.944 359.225 320.766 356.789 325.325C352.884 332.632 347.722 338.092 342.922 344.846Z" fill="#1E976F"/>
<path d="M345.762 342.077C354.064 337.805 363.123 335.01 372.389 333.861C376.086 333.402 379.956 333.224 383.421 334.594C385.036 335.232 386.747 336.928 385.907 338.449C385.626 338.956 385.117 339.288 384.615 339.577C380.133 342.151 374.832 342.816 369.679 343.223C361.42 343.876 354.037 342.476 345.762 342.077Z" fill="#1E976F"/>
<path d="M331.423 356.906C330.261 347.643 330.746 338.174 332.847 329.077C333.686 325.447 334.847 321.751 337.322 318.967C338.477 317.668 340.656 316.645 341.796 317.956C342.177 318.393 342.313 318.986 342.412 319.556C343.291 324.649 342.096 329.857 340.71 334.835C338.488 342.818 334.639 349.271 331.423 356.906Z" fill="#1E976F"/>
<path d="M324.957 365.545C322.347 358.141 321.052 350.275 321.153 342.424C321.193 339.291 321.487 336.046 323.023 333.316C323.739 332.043 325.348 330.811 326.519 331.685C326.909 331.977 327.128 332.439 327.311 332.89C328.944 336.918 328.892 341.41 328.643 345.75C328.245 352.706 326.235 358.696 324.957 365.545Z" fill="#1E976F"/>
<path d="M333.349 354.979C341.651 350.708 350.71 347.913 359.976 346.763C363.673 346.304 367.543 346.127 371.008 347.496C372.623 348.134 374.334 349.831 373.493 351.352C373.213 351.858 372.704 352.191 372.202 352.479C367.72 355.054 362.419 355.718 357.266 356.126C349.007 356.78 341.624 355.379 333.349 354.979Z" fill="#1E976F"/>
<path d="M327.309 362.419C334.056 360.245 341.187 359.27 348.271 359.553C351.097 359.666 354.018 360.01 356.445 361.464C357.576 362.142 358.648 363.624 357.831 364.659C357.558 365.004 357.135 365.19 356.724 365.344C353.048 366.719 348.995 366.563 345.085 366.231C338.817 365.702 333.459 363.741 327.309 362.419Z" fill="#1E976F"/>
<path d="M138.053 330.395C135.084 328.461 132.198 326.403 129.404 324.224C126.599 322.038 123.888 319.731 121.278 317.315C118.695 314.924 116.209 312.426 113.838 309.824C111.443 307.195 109.158 304.466 106.994 301.645C104.838 298.834 102.801 295.931 100.892 292.947C100.655 292.578 100.421 292.205 100.187 291.833C100.02 291.565 99.6202 291.517 99.3711 291.692C99.1002 291.884 99.0618 292.239 99.2304 292.509C101.124 295.536 103.145 298.482 105.29 301.336C107.418 304.168 109.667 306.91 112.027 309.552C114.42 312.231 116.922 314.813 119.532 317.282C122.115 319.727 124.801 322.062 127.582 324.279C130.363 326.495 133.238 328.594 136.198 330.565C136.564 330.809 136.931 331.05 137.299 331.29C137.564 331.462 137.903 331.482 138.124 331.219C138.308 331.001 138.319 330.569 138.053 330.395Z" fill="#1E976F"/>
<path d="M104.139 299.038C97.0576 292.954 91.0594 285.611 86.5085 277.459C84.6923 274.206 83.071 270.688 83.0361 266.962C83.0195 265.224 83.9485 263.002 85.6729 263.209C86.248 263.278 86.7471 263.625 87.2033 263.981C91.2753 267.165 93.885 271.826 96.2011 276.447C99.9148 283.853 101.395 291.22 104.139 299.038Z" fill="#1E976F"/>
<path d="M113.084 310.283C103.787 309.421 94.6463 306.909 86.2157 302.897C82.8517 301.296 79.492 299.365 77.307 296.348C76.2879 294.941 75.7583 292.592 77.2834 291.761C77.7921 291.484 78.4004 291.478 78.979 291.505C84.1417 291.744 88.9688 294.033 93.5328 296.459C100.848 300.348 106.32 305.497 113.084 310.283Z" fill="#1E976F"/>
<path d="M110.308 307.45C106.019 299.157 103.204 290.104 102.034 280.841C101.568 277.145 101.381 273.275 102.743 269.807C103.378 268.19 105.071 266.476 106.593 267.313C107.1 267.592 107.434 268.1 107.723 268.602C110.308 273.078 110.983 278.378 111.403 283.529C112.074 291.788 110.689 299.173 110.308 307.45Z" fill="#1E976F"/>
<path d="M125.17 321.756C115.908 322.938 106.439 322.475 97.3374 320.394C93.7059 319.563 90.0062 318.41 87.2173 315.941C85.9168 314.79 84.8881 312.612 86.1965 311.468C86.6326 311.087 87.2252 310.949 87.795 310.85C92.8861 309.959 98.096 311.143 103.079 312.518C111.065 314.721 117.527 318.556 125.17 321.756Z" fill="#1E976F"/>
<path d="M133.822 328.203C126.423 330.829 118.56 332.141 110.709 332.058C107.576 332.025 104.33 331.738 101.596 330.208C100.322 329.495 99.0871 327.888 99.9585 326.715C100.249 326.325 100.711 326.104 101.162 325.921C105.186 324.279 109.679 324.321 114.019 324.56C120.976 324.943 126.971 326.94 133.822 328.203Z" fill="#1E976F"/>
<path d="M123.238 319.834C118.949 311.542 116.134 302.489 114.964 293.225C114.497 289.529 114.311 285.659 115.672 282.191C116.307 280.574 118 278.86 119.522 279.698C120.029 279.976 120.363 280.485 120.652 280.987C123.237 285.462 123.912 290.762 124.332 295.914C125.004 304.172 123.62 311.557 123.238 319.834Z" fill="#1E976F"/>
<path d="M130.692 325.858C128.502 319.116 127.511 311.987 127.779 304.902C127.885 302.075 128.224 299.153 129.672 296.723C130.347 295.59 131.826 294.515 132.864 295.33C133.21 295.602 133.396 296.024 133.552 296.436C134.935 300.108 134.786 304.162 134.465 308.073C133.948 314.343 131.999 319.704 130.692 325.858Z" fill="#1E976F"/>
<path d="M237.426 203.131C237.426 186.672 225.562 176.259 207.627 176.259C192.901 176.259 181.054 182.799 172.404 193.933C169.463 197.72 164.118 198.614 160.216 195.827L140.846 181.99C137.022 179.258 135.961 173.974 138.546 170.049C153.915 146.707 178.437 132.255 212.318 132.255C253.706 132.255 282.401 154.761 282.401 194.397C282.401 244.32 242.405 253.087 236.717 282.618C235.916 286.777 232.295 289.793 228.06 289.793H203.82C198.485 289.793 194.32 285.084 195.074 279.803C200.601 241.098 237.426 230.161 237.426 203.131ZM188.865 343.538C188.865 326.407 199.902 317.603 215.354 317.603C230.805 317.603 241.842 326.408 241.842 343.538C241.842 360.333 230.806 370.413 215.354 370.413C199.902 370.413 188.865 360.333 188.865 343.538Z" fill="#005B61"/>
<path d="M243.015 202.979C243.015 186.52 231.15 176.107 213.216 176.107C198.49 176.107 186.642 182.647 177.993 193.78C175.051 197.567 169.706 198.461 165.804 195.674L146.434 181.837C142.611 179.105 141.55 173.821 144.134 169.896C159.503 146.554 184.025 132.103 217.907 132.103C259.294 132.103 287.989 154.608 287.989 194.244C287.989 244.167 247.993 252.933 242.305 282.466C241.505 286.624 237.884 289.64 233.648 289.64H209.409C204.075 289.64 199.908 284.931 200.663 279.65C206.188 240.947 243.015 230.01 243.015 202.979ZM194.454 343.386C194.454 326.255 205.491 317.451 220.942 317.451C236.393 317.451 247.43 326.256 247.43 343.386C247.43 360.181 236.394 370.261 220.942 370.261C205.491 370.261 194.454 360.182 194.454 343.386Z" fill="#45A3A9"/>
<path d="M341.863 145.38C342.642 142.214 340.854 139.65 337.404 138.8C334.572 138.103 331.984 138.799 329.793 140.531C329.048 141.12 327.978 141.038 327.359 140.317L324.29 136.739C323.684 136.033 323.73 134.966 324.413 134.334C328.475 130.573 333.875 128.955 340.391 130.56C348.35 132.52 352.802 138.207 350.925 145.83C348.561 155.431 340.454 155.222 337.961 160.633C337.61 161.395 336.771 161.803 335.956 161.603L331.294 160.455C330.268 160.203 329.69 159.1 330.085 158.12C332.982 150.937 340.582 150.578 341.863 145.38ZM325.874 170.081C326.685 166.786 329.224 165.616 332.196 166.349C335.168 167.08 336.873 169.297 336.062 172.591C335.266 175.821 332.666 177.237 329.695 176.504C326.723 175.773 325.078 173.312 325.874 170.081Z" fill="#B3DAC9"/>
<path d="M104.359 188.312C102.782 185.459 99.7278 184.791 96.619 186.51C94.066 187.921 92.6397 190.19 92.207 192.949C92.0602 193.887 91.2194 194.554 90.2755 194.445L85.5917 193.902C84.667 193.795 83.9766 192.981 84.0482 192.053C84.4756 186.534 87.3415 181.679 93.2139 178.432C100.388 174.466 107.519 175.618 111.316 182.488C116.1 191.141 110.008 196.494 111.852 202.158C112.111 202.955 111.773 203.825 111.039 204.231L106.838 206.554C105.913 207.065 104.74 206.649 104.364 205.661C101.614 198.422 106.95 192.998 104.359 188.312ZM109.397 217.303C107.755 214.334 108.824 211.75 111.503 210.269C114.181 208.789 116.938 209.257 118.58 212.226C120.189 215.138 119.242 217.942 116.564 219.423C113.885 220.904 111.006 220.215 109.397 217.303Z" fill="#B3DAC9"/>
<path d="M223.097 85.507C223.143 82.8675 221.27 81.1649 218.393 81.1151C216.032 81.074 214.114 82.0896 212.696 83.8516C212.213 84.4503 211.354 84.5796 210.736 84.1217L207.669 81.8493C207.063 81.4009 206.907 80.5505 207.333 79.9282C209.862 76.2277 213.835 73.9789 219.268 74.0733C225.905 74.1887 230.444 77.8769 230.334 84.2327C230.195 92.2385 223.757 93.5329 222.763 98.2525C222.623 98.9176 222.034 99.3905 221.355 99.3791L217.468 99.3118C216.612 99.2969 215.958 98.5304 216.093 97.6853C217.086 91.493 223.022 89.8411 223.097 85.507ZM214.919 107.887C214.966 105.14 216.761 103.759 219.239 103.802C221.716 103.844 223.462 105.287 223.414 108.034C223.367 110.727 221.57 112.313 219.092 112.271C216.614 112.227 214.872 110.58 214.919 107.887Z" fill="#B3DAC9"/>
<path d="M286.788 365.179C286.788 365.179 284.723 371.376 285.835 379.242C285.835 379.242 279.182 382.757 272.662 378.288C272.662 378.288 278.079 374.166 276.381 363.114" fill="#FF9670"/>
<path d="M257.498 385.908C257.693 385.502 257.994 385.15 258.4 384.919C260.611 383.662 265.997 380.681 274.137 376.679C274.137 376.679 278.697 378.209 285.622 377.337C285.622 377.337 286.357 381.876 286.274 385.634C282.035 385.821 265.673 386.478 257.498 385.908Z" fill="#602B29"/>
<path d="M286.274 385.633C286.254 386.57 286.216 387.466 286.152 388.235H257.262V386.876C257.262 386.532 257.355 386.207 257.498 385.908C265.673 386.478 282.035 385.821 286.274 385.633Z" fill="#400E09"/>
<path d="M267.051 381.408C267.051 381.69 266.822 381.919 266.539 381.919C266.257 381.919 266.028 381.69 266.028 381.408C266.028 381.125 266.257 380.896 266.539 380.896C266.822 380.896 267.051 381.125 267.051 381.408Z" fill="#400E09"/>
<path d="M270.881 379.767C270.881 380.049 270.652 380.278 270.37 380.278C270.088 380.278 269.859 380.049 269.859 379.767C269.859 379.485 270.088 379.256 270.37 379.256C270.652 379.256 270.881 379.485 270.881 379.767Z" fill="#400E09"/>
<path d="M274.66 377.769C274.66 378.051 274.431 378.28 274.148 378.28C273.866 378.28 273.637 378.051 273.637 377.769C273.637 377.487 273.866 377.258 274.148 377.258C274.431 377.257 274.66 377.486 274.66 377.769Z" fill="#400E09"/>
<path d="M304.953 362.076C304.953 362.076 308.262 374.716 306.746 379.749C306.746 379.749 313.399 383.264 319.919 378.795C319.919 378.795 313.561 376.651 315.726 358.695" fill="#FF9670"/>
<path d="M335.082 386.414C334.887 386.008 334.586 385.656 334.18 385.425C331.969 384.168 326.583 381.187 318.443 377.185C318.443 377.185 313.883 378.715 306.958 377.843C306.958 377.843 306.223 382.382 306.306 386.14C310.546 386.327 326.907 386.985 335.082 386.414Z" fill="#602B29"/>
<path d="M306.306 386.14C306.326 387.077 306.363 387.973 306.428 388.741H335.319V387.381C335.319 387.037 335.226 386.713 335.083 386.413C326.907 386.985 310.546 386.327 306.306 386.14Z" fill="#400E09"/>
<path d="M319.541 378.606C319.541 378.888 319.312 379.117 319.03 379.117C318.748 379.117 318.519 378.888 318.519 378.606C318.519 378.323 318.748 378.094 319.03 378.094C319.312 378.094 319.541 378.323 319.541 378.606Z" fill="#400E09"/>
<path d="M328.284 382.821C328.284 383.103 328.055 383.332 327.773 383.332C327.49 383.332 327.261 383.103 327.261 382.821C327.261 382.538 327.49 382.309 327.773 382.309C328.055 382.309 328.284 382.538 328.284 382.821Z" fill="#400E09"/>
<path d="M323.475 380.823C323.475 381.105 323.246 381.334 322.964 381.334C322.682 381.334 322.453 381.105 322.453 380.823C322.453 380.541 322.682 380.312 322.964 380.312C323.246 380.311 323.475 380.54 323.475 380.823Z" fill="#400E09"/>
<path d="M283.228 161.507C285.33 164.992 285.697 169.185 284.854 173.078C284.012 176.971 282.034 180.599 279.677 183.949C283.964 186.831 289.19 188.561 294.528 188.869C296.617 188.989 298.803 188.877 300.651 187.988C298.759 186.323 297.771 184 297.085 181.698C295.737 177.181 295.339 172.434 295.917 167.785" fill="#FF9670"/>
<path d="M289.022 169.175C290.678 170.078 293.408 171.343 295.669 171.79C295.675 170.453 295.751 169.115 295.917 167.786L283.229 161.507C283.726 162.331 284.118 163.196 284.428 164.085C285.557 166.088 286.93 168.033 289.022 169.175Z" fill="#FC7F51"/>
<path d="M306.7 151.313L302.918 152.066L303.03 152.63L306.813 151.876L306.7 151.313Z" fill="#D03711"/>
<path d="M290.3 141.633C293.827 140.673 297.733 142.03 300.365 144.567C302.997 147.103 304.921 151.038 305.505 154.646C306.09 158.253 305.904 160.522 305.564 164.162C305.474 165.124 304.851 167.189 304.251 167.946C303.649 168.704 302.887 169.418 301.97 169.724C300.516 170.209 297.753 170.325 295.485 169.918C291.889 169.272 288.737 168.196 286.177 165.588C283.617 162.98 283.507 160.542 284.001 156.921" fill="#FF9670"/>
<path d="M284.71 159.921C284.187 159.508 283.62 159.13 282.979 158.947C282.339 158.765 281.612 158.799 281.054 159.163C280.519 159.513 280.197 160.135 280.124 160.771C280.051 161.406 280.208 162.051 280.473 162.632C280.946 163.67 281.839 164.573 282.958 164.791C284.077 165.009 285.376 164.364 285.656 163.26C285.841 162.528 285.58 161.762 285.277 161.07" fill="#FF9670"/>
<path d="M283.844 160.634C283.658 160.487 283.457 160.354 283.23 160.289C283.003 160.224 282.744 160.236 282.547 160.366C282.357 160.49 282.243 160.711 282.216 160.937C282.191 161.162 282.246 161.391 282.341 161.597C282.508 161.965 282.826 162.286 283.222 162.364C283.619 162.441 284.081 162.213 284.179 161.82C284.245 161.561 284.152 161.289 284.045 161.043" fill="#FC7F51"/>
<path d="M280.244 147.818C279.002 147.997 277.735 148.005 276.49 147.842C275.415 147.701 274.343 147.426 273.404 146.883C271.733 145.914 270.614 144.126 270.267 142.227C269.92 140.327 270.299 138.337 271.13 136.593C271.839 135.103 272.921 133.729 274.408 133.012C275.99 132.249 277.847 132.309 279.572 132.639C281.635 133.034 283.767 133.907 284.881 135.688C286.194 137.784 285.743 140.507 285.021 142.872" fill="#2D0E0B"/>
<path d="M305.203 148.519C304.495 144.188 301.113 140.502 296.967 139.064C292.821 137.626 288.072 138.338 284.311 140.598C283.095 141.329 281.974 142.209 280.859 143.087C279.893 143.846 278.917 144.616 278.151 145.577C276.764 147.316 276.158 149.595 276.197 151.818C276.236 154.042 276.882 156.22 277.783 158.253C278.076 158.918 278.434 159.609 279.066 159.967C280.403 160.725 282.002 159.616 283.532 159.472C283.708 159.455 283.898 159.455 284.046 159.552C284.271 159.7 284.313 160.008 284.337 160.277C284.696 164.371 285.833 168.394 287.668 172.071C288.038 172.813 288.455 173.563 289.112 174.07C287.678 169.333 287.006 165.072 287.114 160.125C287.128 160.114 287.17 159.413 287.172 159.395C287.236 158.639 287.413 157.352 287.468 157.088C287.955 154.731 288.468 153.954 288.955 151.597C289.4 152.554 289.845 153.512 290.29 154.47C290.425 154.762 290.594 155.084 290.902 155.179C291.204 155.271 291.518 155.109 291.792 154.952C293.503 153.97 295.215 152.988 296.926 152.005C297.124 151.892 297.334 151.765 297.427 151.557C297.506 151.382 297.488 151.181 297.468 150.991C297.362 149.976 297.256 148.961 297.151 147.946C298.038 148.787 298.926 149.628 299.813 150.468C299.98 150.626 300.16 150.792 300.387 150.834C300.605 150.875 300.826 150.795 301.034 150.715C302.283 150.237 303.531 149.759 304.78 149.281C304.92 149.228 305.069 149.167 305.153 149.043C305.253 148.894 305.232 148.696 305.203 148.519Z" fill="#2D0E0B"/>
<path d="M276.951 148.515C278.881 145.784 281.834 142.406 285.927 139.808C287.135 139.041 286.469 137.16 285.051 137.348C281.05 137.88 276.058 140.081 274.546 147.462C274.258 148.873 276.119 149.693 276.951 148.515Z" fill="#1E976F"/>
<path d="M296.307 153.053C294.572 153.073 292.367 153.269 291.524 154.308C291.105 154.825 290.556 154.749 290.935 154.194C292.112 152.473 293.822 152.206 296.341 151.982C296.616 151.957 296.856 152.242 296.845 152.558C296.837 152.818 296.587 153.111 296.307 153.053Z" fill="#2D0E0B"/>
<path d="M290.976 161.676C291.367 162.94 293.19 163.498 295.048 162.923C296.905 162.348 298.093 160.856 297.701 159.592C297.31 158.328 295.486 157.77 293.629 158.345C291.772 158.92 290.584 160.411 290.976 161.676Z" fill="#FC7F51"/>
<path d="M302.609 152.509C302.758 152.987 303.102 153.306 303.378 153.22C303.654 153.135 303.758 152.677 303.609 152.199C303.461 151.721 303.117 151.402 302.841 151.488C302.565 151.573 302.461 152.03 302.609 152.509Z" fill="#2D0E0B"/>
<path d="M294.645 155.701C294.812 156.241 295.252 156.585 295.627 156.469C296.002 156.352 296.171 155.82 296.003 155.28C295.836 154.74 295.395 154.396 295.021 154.513C294.646 154.629 294.477 155.161 294.645 155.701Z" fill="#2D0E0B"/>
<path d="M301.562 157.969C301.852 157.795 302.08 157.561 302.275 157.296C301.093 156.69 300.198 155.549 299.924 154.246C299.887 154.07 299.952 153.885 300.138 153.825C300.295 153.773 300.521 153.862 300.559 154.039C300.827 155.319 301.714 156.38 302.928 156.868C303.094 156.935 303.154 157.169 303.075 157.317C302.807 157.817 302.418 158.234 301.931 158.527C301.563 158.748 301.194 158.191 301.562 157.969Z" fill="#F46E45"/>
<path d="M303.826 160.638C303.826 160.638 302.402 162.078 300.111 161.887C300.111 161.887 303.735 163.592 303.826 160.638Z" fill="#E53E3E"/>
<path d="M294.732 159.983C294.081 159.983 293.432 159.815 292.835 159.485C291.897 158.965 291.2 158.102 290.876 157.056C290.206 154.892 291.353 152.608 293.433 151.963C294.444 151.648 295.518 151.764 296.463 152.288C297.402 152.809 298.099 153.671 298.423 154.718C299.092 156.881 297.946 159.166 295.866 159.811C295.493 159.926 295.111 159.983 294.732 159.983ZM294.565 152.365C294.242 152.365 293.918 152.414 293.603 152.512C291.825 153.063 290.848 155.025 291.426 156.887C291.705 157.79 292.305 158.534 293.114 158.983C293.917 159.429 294.833 159.529 295.693 159.262C297.471 158.712 298.448 156.749 297.871 154.888C297.591 153.984 296.991 153.239 296.182 152.791C295.674 152.509 295.12 152.365 294.565 152.365Z" fill="#D03711"/>
<path d="M303.884 156.47C302.261 156.47 300.709 155.165 300.223 153.259C299.663 151.064 300.727 148.89 302.593 148.415C303.506 148.182 304.47 148.383 305.305 148.984C306.125 149.573 306.724 150.478 306.993 151.532C307.262 152.586 307.169 153.668 306.732 154.577C306.286 155.505 305.537 156.144 304.623 156.376C304.378 156.439 304.13 156.47 303.884 156.47ZM303.342 148.896C303.137 148.896 302.935 148.921 302.735 148.972C301.177 149.37 300.299 151.23 300.78 153.118C301.262 155.004 302.92 156.219 304.482 155.819C305.228 155.629 305.843 155.099 306.214 154.328C306.593 153.541 306.672 152.598 306.436 151.675V151.674C306.2 150.751 305.68 149.961 304.969 149.451C304.461 149.085 303.899 148.896 303.342 148.896Z" fill="#D03711"/>
<path d="M291.089 156.681L287.307 157.434L287.419 157.998L291.202 157.245L291.089 156.681Z" fill="#D03711"/>
<path d="M298.221 154.571L297.767 154.217C297.824 154.144 299.162 152.46 300.684 153.148L300.448 153.672C299.336 153.171 298.231 154.557 298.221 154.571Z" fill="#D03711"/>
<path d="M271.28 228.121C271.28 228.121 267.227 238.346 265.362 257.321C263.497 276.295 254.053 368.612 254.053 368.612C254.053 368.612 285.654 372.477 296.12 370.186C296.12 370.186 292.296 274.414 294.181 257.075L301.549 369.777C301.549 369.777 326.871 371.209 341.42 366.956C341.42 366.956 319.785 250.313 309.921 228.708" fill="#E05042"/>
<path d="M293.675 270.799C293.557 270.105 293.443 269.411 293.332 268.716C291.641 292.354 289.805 316.075 287.229 339.595C286.329 347.807 287.134 359.488 278.738 364.083C274.992 366.134 270.646 366.776 266.495 367.47C263.182 368.024 259.868 368.509 256.544 368.897C264.189 369.747 287.43 372.086 296.119 370.184C296.119 370.184 293.426 302.732 293.675 270.799Z" fill="#B11722"/>
<path d="M278.931 235.081C289.126 233.395 300.627 233.674 309.927 228.72C309.925 228.716 309.923 227.731 309.921 227.728L271.28 228.121C271.28 228.121 269.112 233.598 267.218 243.961C269.765 239.545 273.276 236.016 278.931 235.081Z" fill="#B11722"/>
<path d="M329.679 366.67C324.494 365.983 318.306 365.711 313.5 363.526C310.04 361.952 308.012 359.205 306.893 355.626C305.205 350.225 304.542 344.282 303.646 338.709C301.53 325.541 300.894 312.191 298.932 299.003C298.086 293.327 296.942 287.708 295.816 282.087L301.548 369.777C301.548 369.777 323.821 371.036 338.592 367.684C335.523 367.573 332.369 367.026 329.679 366.67Z" fill="#B11722"/>
<path d="M262.876 368.562C262.759 359.301 262.856 350.037 263.172 340.781C263.488 331.525 264.021 322.277 264.77 313.047C265.515 303.865 266.473 294.701 267.645 285.564C268.829 276.326 270.234 267.115 271.855 257.943C273.464 248.838 275.286 239.771 277.322 230.752C277.574 229.637 277.829 228.521 278.088 227.407C278.185 226.988 277.54 226.809 277.443 227.23C275.346 236.281 273.461 245.381 271.793 254.52C270.138 263.591 268.696 272.701 267.466 281.841C266.229 291.03 265.207 300.248 264.401 309.484C263.596 318.709 263.008 327.954 262.635 337.207C262.261 346.507 262.107 355.816 262.172 365.124C262.18 366.27 262.192 367.417 262.206 368.562C262.212 368.992 262.881 368.994 262.876 368.562Z" fill="#FF8D82"/>
<path d="M283.612 225.605C283.654 234.936 283.419 244.266 283.06 253.589C282.694 263.097 282.198 272.599 281.715 282.102C281.231 291.622 280.755 301.142 280.434 310.669C280.117 320.099 280.05 329.525 280.037 338.959C280.024 348.112 280.007 357.264 279.821 366.415C279.799 367.491 279.774 368.567 279.747 369.643C279.737 370.074 280.405 370.073 280.416 369.643C280.642 360.622 280.683 351.598 280.701 342.575C280.72 333.115 280.715 323.659 280.993 314.202C281.272 304.693 281.724 295.19 282.202 285.689C282.681 276.177 283.189 266.667 283.587 257.152C283.977 247.796 284.262 238.433 284.287 229.068C284.29 227.913 284.289 226.758 284.283 225.603C284.279 225.174 283.61 225.173 283.612 225.605Z" fill="#FF8D82"/>
<path d="M291.982 227.514C292.84 235.296 293.453 243.105 293.811 250.926C293.912 253.14 293.994 255.356 294.055 257.571C294.067 258 294.736 258.002 294.723 257.571C294.506 249.753 294.04 241.942 293.322 234.154C293.119 231.939 292.894 229.726 292.65 227.515C292.605 227.091 291.935 227.086 291.982 227.514Z" fill="#F3D1A4"/>
<path d="M299.163 228.569C301.215 237.6 302.758 246.742 303.941 255.926C305.122 265.1 305.955 274.315 306.625 283.54C307.292 292.743 307.796 301.957 308.317 311.169C308.84 320.429 309.379 329.689 310.119 338.936C310.849 348.064 311.775 357.179 313.067 366.246C313.233 367.41 313.405 368.571 313.583 369.733C313.647 370.157 314.292 369.976 314.228 369.555C312.824 360.383 311.817 351.155 311.033 341.911C310.249 332.669 309.684 323.411 309.155 314.151C308.629 304.938 308.138 295.722 307.504 286.516C306.868 277.286 306.087 268.065 304.978 258.879C303.883 249.808 302.469 240.772 300.567 231.834C300.322 230.684 300.069 229.537 299.809 228.391C299.713 227.972 299.068 228.149 299.163 228.569Z" fill="#FF8D82"/>
<path d="M306.742 227.978C309.038 236.994 311.217 246.04 313.275 255.114C315.331 264.182 317.268 273.278 319.084 282.398C320.9 291.514 322.593 300.653 324.167 309.815C325.739 318.972 327.19 328.149 328.518 337.345C329.856 346.598 331.068 355.869 332.157 365.155C332.29 366.291 332.421 367.426 332.551 368.562C332.599 368.985 333.268 368.99 333.22 368.562C332.169 359.35 330.999 350.152 329.706 340.972C328.411 331.772 326.994 322.59 325.456 313.428C323.909 304.217 322.239 295.027 320.448 285.86C318.655 276.689 316.741 267.543 314.706 258.423C312.669 249.298 310.51 240.201 308.232 231.134C307.952 230.022 307.671 228.911 307.388 227.8C307.28 227.383 306.635 227.56 306.742 227.978Z" fill="#FF8D82"/>
<path d="M309.696 181.916C312.193 182.704 314.121 184.758 315.4 187.043C316.679 189.329 317.408 191.871 318.272 194.344C320.488 200.691 323.696 206.943 323.599 213.666C323.568 215.757 323.161 217.955 321.803 219.546C320.304 221.306 317.939 222.013 315.712 222.634C314.516 222.968 313.285 223.305 312.05 223.176C310.126 222.975 308.456 221.637 307.446 219.987C306.438 218.337 306.005 216.401 305.739 214.484C305.036 209.406 305.397 204.248 305.758 199.134C306.117 194.074 306.514 188.867 308.764 184.321" fill="#7D45A9"/>
<path d="M283.908 177.317C279.303 178.601 272.989 180.887 268.958 183.458C268.33 183.858 268.704 184.713 268.357 185.371C267.595 186.816 269.426 187.786 270.046 189.297C271.743 193.435 270.923 198.135 271.545 202.563C272.477 209.198 276.666 215.306 276.233 221.992C276.199 222.52 276.141 223.08 276.378 223.553C276.797 224.388 277.89 224.562 278.821 224.63C287.14 225.239 295.476 225.647 303.816 225.85C304.299 225.862 304.821 225.863 305.215 225.582C305.704 225.233 305.835 224.576 305.94 223.984C306.513 220.75 307.435 217.578 308.685 214.541C309.953 211.464 311.575 208.464 312.011 205.165C312.204 203.703 312.157 202.221 312.111 200.746C311.96 196.036 311.809 191.326 311.659 186.616C311.633 185.807 311.596 184.959 311.185 184.263C310.763 183.547 310.01 183.1 309.281 182.702C305.9 180.856 302.321 179.374 298.625 178.291C297.884 178.073 297.108 177.87 296.347 178.006C295.238 178.202 294.389 179.068 293.421 179.645C290.993 181.094 285.753 179.462 283.908 177.317Z" fill="#7D45A9"/>
<path d="M309.011 184.294C309.146 182.991 308.227 181.795 307.157 181.038C306.087 180.282 304.833 179.812 303.777 179.036C302.721 178.26 301.842 177.02 302.048 175.726C302.135 175.182 302.404 174.686 302.669 174.203C303.205 173.226 303.74 172.248 304.277 171.271C304.53 170.809 304.786 170.341 304.91 169.829C305.192 168.662 304.759 167.455 304.333 166.333C303.867 165.107 303.401 163.881 302.935 162.656C302.858 162.453 302.78 162.226 302.864 162.025C303.057 161.558 303.76 161.763 304.177 162.052C305.655 163.077 307.046 164.229 308.328 165.49C309.761 166.9 311.08 168.482 311.836 170.344C312.37 171.66 312.606 173.074 312.996 174.439C313.692 176.874 314.872 179.138 315.888 181.457C317.736 185.675 319.05 190.103 320.36 194.517C321.089 196.973 321.822 199.445 322.113 201.991C322.325 203.851 322.301 205.728 322.265 207.599C322.209 210.54 322.126 213.503 321.47 216.371C321.092 218.028 320.107 219.959 318.407 219.934C317.125 219.916 316.184 218.756 315.511 217.664C312.717 213.128 311.188 207.904 310.399 202.633C309.609 197.366 309.088 189.623 309.011 184.294Z" fill="#FF9670"/>
<path d="M276.427 217.495C287.05 216.331 297.794 219.498 308.419 218.349C310.61 218.112 313.14 217.796 314.727 219.326C316.162 220.708 316.1 223.175 314.964 224.811C313.828 226.446 311.875 227.346 309.92 227.728C307.965 228.11 305.956 228.047 303.968 228.171C301.44 228.329 298.941 228.792 296.419 229.018C290.099 229.582 283.649 228.628 277.764 226.257" fill="#FF9670"/>
<path d="M283.589 177.116C283.589 177.116 291.722 182.775 296.503 177.8C296.503 177.8 300.079 178.703 303.508 180.041C303.508 180.041 299.779 187.358 292.423 181.044C292.423 181.044 285.389 190.31 278.295 179.338L283.589 177.116Z" fill="#34005D"/>
<path d="M283.769 176.694C283.769 176.694 291.894 181.165 296.019 176.874C296.019 176.874 298.621 178.096 301.58 179.251C301.58 179.251 298.364 185.562 292.017 180.117C292.017 180.117 285.949 188.11 279.829 178.645L283.769 176.694Z" fill="#7D45A9"/>
<path d="M269.812 183.484C269.812 183.484 273.15 184.427 274.968 198.277C276.787 212.128 278.296 212.547 278.296 212.547C278.296 212.547 294.404 217.028 297.073 218.296L298.038 229.908C298.038 229.908 274.899 230.755 267.274 228.122C259.65 225.489 263.917 192.123 263.917 192.123C263.917 192.123 265.424 182.681 269.812 183.484Z" fill="#7D45A9"/>
<path d="M272.463 190.473C272.893 190.473 272.893 189.804 272.463 189.804C272.033 189.804 272.032 190.473 272.463 190.473Z" fill="#F3D1A4"/>
<path d="M266.418 203.111C266.849 203.111 266.849 202.443 266.418 202.443C265.988 202.443 265.987 203.111 266.418 203.111Z" fill="#F3D1A4"/>
<path d="M280.156 207.324C280.586 207.324 280.587 206.656 280.156 206.656C279.725 206.656 279.725 207.324 280.156 207.324Z" fill="#F3D1A4"/>
<path d="M269.166 217.949C269.596 217.949 269.597 217.28 269.166 217.28C268.735 217.28 268.735 217.949 269.166 217.949Z" fill="#F3D1A4"/>
<path d="M273.562 227.657C273.992 227.657 273.993 226.988 273.562 226.988C273.131 226.987 273.131 227.657 273.562 227.657Z" fill="#F3D1A4"/>
<path d="M284.735 218.315C285.165 218.315 285.166 217.646 284.735 217.646C284.305 217.646 284.304 218.315 284.735 218.315Z" fill="#F3D1A4"/>
<path d="M294.81 227.29C295.24 227.29 295.241 226.621 294.81 226.621C294.379 226.621 294.379 227.29 294.81 227.29Z" fill="#F3D1A4"/>
<path d="M294.81 212.087C295.24 212.087 295.241 211.418 294.81 211.418C294.379 211.418 294.379 212.087 294.81 212.087Z" fill="#F3D1A4"/>
<path d="M284.919 199.631C285.349 199.631 285.35 198.963 284.919 198.963C284.488 198.963 284.487 199.631 284.919 199.631Z" fill="#F3D1A4"/>
<path d="M277.958 181.497C278.388 181.497 278.389 180.829 277.958 180.829C277.527 180.828 277.526 181.497 277.958 181.497Z" fill="#F3D1A4"/>
<path d="M285.101 189.19C285.531 189.19 285.532 188.522 285.101 188.522C284.671 188.522 284.671 189.19 285.101 189.19Z" fill="#F3D1A4"/>
<path d="M296.642 198.349C297.072 198.349 297.073 197.681 296.642 197.681C296.211 197.681 296.21 198.349 296.642 198.349Z" fill="#F3D1A4"/>
<path d="M299.023 187.725C299.453 187.725 299.453 187.056 299.023 187.056C298.593 187.056 298.592 187.725 299.023 187.725Z" fill="#F3D1A4"/>
<path d="M307.449 183.696C307.88 183.696 307.88 183.027 307.449 183.027C307.018 183.026 307.018 183.696 307.449 183.696Z" fill="#F3D1A4"/>
<path d="M307.449 195.601C307.88 195.601 307.88 194.933 307.449 194.933C307.018 194.933 307.018 195.601 307.449 195.601Z" fill="#F3D1A4"/>
<path d="M306.533 208.606C306.963 208.606 306.964 207.938 306.533 207.938C306.103 207.938 306.102 208.606 306.533 208.606Z" fill="#F3D1A4"/>
<path d="M307.083 216.483C307.513 216.483 307.513 215.814 307.083 215.814C306.652 215.814 306.651 216.483 307.083 216.483Z" fill="#F3D1A4"/>
<path d="M316.607 221.063C317.037 221.063 317.038 220.394 316.607 220.394C316.177 220.394 316.177 221.063 316.607 221.063Z" fill="#F3D1A4"/>
<path d="M272.786 195.702C273.003 198.51 273.219 201.318 273.435 204.126C273.61 206.394 273.6 208.817 274.335 210.995C274.639 211.896 275.091 212.76 275.768 213.438C276.543 214.214 277.557 214.661 278.616 214.9C279.824 215.173 281.082 215.247 282.313 215.345C283.708 215.456 285.105 215.536 286.503 215.595C289.658 215.728 292.815 215.75 295.971 215.773C296.402 215.777 296.402 215.107 295.971 215.104C290.696 215.066 285.377 215.079 280.129 214.473C278.983 214.341 277.79 214.116 276.822 213.451C276.014 212.897 275.453 212.057 275.101 211.153C274.322 209.152 274.318 206.899 274.155 204.786C273.922 201.758 273.689 198.729 273.455 195.701C273.422 195.275 272.753 195.272 272.786 195.702Z" fill="#34005D"/>
<path d="M270.909 212.579C272.037 212.58 273.164 212.647 274.285 212.781C274.465 212.802 274.62 212.612 274.62 212.446C274.62 212.247 274.465 212.133 274.285 212.111C273.164 211.977 272.037 211.91 270.909 211.909C270.478 211.909 270.478 212.579 270.909 212.579Z" fill="#34005D"/>
<path d="M304.983 196.023C306.179 201.676 307.383 207.396 307.336 213.203C307.323 214.869 307.203 216.533 306.952 218.179C306.889 218.601 307.533 218.781 307.597 218.357C308.491 212.493 307.749 206.573 306.64 200.792C306.323 199.139 305.977 197.493 305.628 195.846C305.539 195.425 304.894 195.603 304.983 196.023Z" fill="#34005D"/>
<path d="M148.549 363.734C148.549 363.734 146.484 369.93 147.596 377.796C147.596 377.796 140.943 381.312 134.423 376.843C134.423 376.843 139.84 372.721 138.142 361.668" fill="#FF9670"/>
<path d="M119.259 384.461C119.454 384.056 119.755 383.704 120.161 383.473C122.372 382.216 127.758 379.235 135.898 375.233C135.898 375.233 140.458 376.762 147.383 375.891C147.383 375.891 148.118 380.43 148.035 384.188C143.796 384.375 127.434 385.032 119.259 384.461Z" fill="#E05042"/>
<path d="M148.036 384.187C148.015 385.124 147.978 386.02 147.913 386.789H119.022V385.43C119.022 385.085 119.115 384.76 119.258 384.461C127.434 385.032 143.796 384.375 148.036 384.187Z" fill="#750008"/>
<path d="M128.301 380.472C128.583 380.472 128.812 380.243 128.812 379.961C128.812 379.679 128.583 379.45 128.301 379.45C128.018 379.45 127.789 379.679 127.789 379.961C127.789 380.243 128.018 380.472 128.301 380.472Z" fill="#400E09"/>
<path d="M132.643 378.321C132.643 378.603 132.414 378.832 132.131 378.832C131.849 378.832 131.62 378.603 131.62 378.321C131.62 378.038 131.849 377.809 132.131 377.809C132.414 377.809 132.643 378.038 132.643 378.321Z" fill="#400E09"/>
<path d="M136.42 376.323C136.42 376.605 136.191 376.834 135.909 376.834C135.626 376.834 135.397 376.605 135.397 376.323C135.397 376.04 135.626 375.811 135.909 375.811C136.192 375.811 136.42 376.04 136.42 376.323Z" fill="#400E09"/>
<path d="M176.871 362.258C176.871 362.258 177.454 373.416 175.938 378.447C175.938 378.447 182.591 381.962 189.111 377.494C189.111 377.494 184.448 375.884 186.613 357.927" fill="#FF9670"/>
<path d="M204.275 385.113C204.08 384.708 203.778 384.356 203.373 384.125C201.162 382.868 195.776 379.887 187.636 375.885C187.636 375.885 183.076 377.414 176.151 376.543C176.151 376.543 175.416 381.082 175.498 384.84C179.739 385.027 196.099 385.684 204.275 385.113Z" fill="#E05042"/>
<path d="M175.498 384.839C175.519 385.776 175.557 386.672 175.621 387.44H204.512V386.08C204.512 385.736 204.419 385.41 204.276 385.112C196.099 385.684 179.739 385.027 175.498 384.839Z" fill="#750008"/>
<path d="M188.734 377.305C188.734 377.587 188.505 377.816 188.223 377.816C187.941 377.816 187.712 377.587 187.712 377.305C187.712 377.023 187.941 376.794 188.223 376.794C188.505 376.793 188.734 377.022 188.734 377.305Z" fill="#400E09"/>
<path d="M197.477 381.52C197.477 381.802 197.248 382.031 196.966 382.031C196.683 382.031 196.454 381.802 196.454 381.52C196.454 381.238 196.683 381.009 196.966 381.009C197.248 381.008 197.477 381.238 197.477 381.52Z" fill="#400E09"/>
<path d="M192.668 379.521C192.668 379.804 192.439 380.033 192.157 380.033C191.874 380.033 191.646 379.804 191.646 379.521C191.646 379.239 191.874 379.01 192.157 379.01C192.439 379.01 192.668 379.239 192.668 379.521Z" fill="#400E09"/>
<path d="M168.619 140.341C169.99 145.733 168.866 151.536 166.456 156.55C166.158 157.171 165.834 157.879 166.086 158.519C166.273 158.994 166.734 159.298 167.181 159.545C171.431 161.902 176.933 161.814 181.105 159.322C181.238 159.243 181.378 159.153 181.437 159.009C181.556 158.726 181.31 158.434 181.102 158.206C179.955 156.94 180.556 155.432 180.058 153.798C177.922 146.791 179.241 140.414 181.716 133.689" fill="#FF9670"/>
<path d="M169.159 146.725C171.294 146.225 173.751 144.885 175.498 143.52C177.434 142.007 178.662 140.481 179.355 138.886C179.601 138.321 179.983 137.863 180.446 137.499C180.818 136.237 181.246 134.969 181.718 133.689L168.62 140.341C169.04 141.998 169.174 145.026 169.159 146.725C169.167 146.724 169.151 146.728 169.159 146.725Z" fill="#FC7F51"/>
<path d="M172.091 113.525C170.645 113.305 169.191 113.865 167.923 114.595C164.645 116.48 162.103 119.607 160.927 123.2C160.459 124.632 160.201 126.126 160.001 127.62C159.529 131.142 159.034 132.499 159.185 136.05C159.232 137.163 160.129 141.578 160.604 142.585C161.246 143.951 161.68 144.234 163.116 144.693C164.554 145.153 166.509 144.767 168.001 144.54C172.457 143.861 176.578 141.224 179.06 137.462C181.542 133.7 182.345 128.874 181.216 124.511" fill="#FF9670"/>
<path d="M192.571 116.456C190.556 116.605 188.595 117.076 186.727 117.821C186.938 117.038 190.014 112.854 187.901 113.694C187.699 114.822 184.151 118.997 185.998 119.07C186.831 117.934 194.625 117.611 192.571 116.456Z" fill="#2D0E0B"/>
<path d="M173.49 136.855C173.187 138.081 171.483 138.715 169.682 138.271C167.881 137.827 166.665 136.474 166.967 135.248C167.27 134.022 168.975 133.387 170.776 133.831C172.577 134.274 173.792 135.628 173.49 136.855Z" fill="#FC7F51"/>
<path d="M167.935 128.316C169.775 128.228 172.126 128.297 173.084 129.347C173.561 129.869 174.138 129.753 173.701 129.189C172.346 127.437 170.516 127.262 167.832 127.181C167.54 127.172 167.303 127.49 167.333 127.823C167.358 128.1 167.642 128.395 167.935 128.316Z" fill="#2D0E0B"/>
<path d="M163.32 125.862C162.302 125.24 161.423 124.74 160.57 124.443C160.523 124.599 160.473 124.753 160.423 124.907C160.416 125.047 160.397 125.183 160.379 125.32C161.167 125.697 161.962 126.22 162.645 126.714C162.838 126.93 163.219 126.843 163.383 126.636C163.582 126.384 163.559 126.007 163.32 125.862Z" fill="#2D0E0B"/>
<path d="M161.894 128.777C161.779 129.241 161.47 129.564 161.201 129.498C160.934 129.432 160.809 129.002 160.924 128.538C161.038 128.074 161.347 127.752 161.616 127.817C161.883 127.883 162.008 128.313 161.894 128.777Z" fill="#2D0E0B"/>
<path d="M169.66 131.37C169.531 131.894 169.131 132.246 168.768 132.157C168.404 132.067 168.214 131.57 168.343 131.046C168.472 130.522 168.872 130.17 169.235 130.259C169.599 130.349 169.789 130.846 169.66 131.37Z" fill="#2D0E0B"/>
<path d="M163.199 133.92C162.914 133.77 162.683 133.559 162.482 133.318C163.573 132.675 164.362 131.538 164.549 130.281C164.574 130.111 164.501 129.939 164.322 129.892C164.169 129.852 163.958 129.948 163.933 130.119C163.749 131.353 162.964 132.415 161.835 132.948C161.682 133.02 161.637 133.247 161.721 133.384C162.004 133.845 162.398 134.22 162.878 134.471C163.241 134.661 163.562 134.11 163.199 133.92Z" fill="#F46E45"/>
<path d="M161.192 136.589C161.192 136.589 162.63 137.881 164.801 137.569C164.801 137.569 161.445 139.397 161.192 136.589Z" fill="#E53E3E"/>
<path d="M190.515 126.3C190.28 122.971 189.953 120.052 187.04 118.421L186.609 117.951C186.313 115.927 185.097 114.113 183.527 112.803C182.448 111.904 181.206 111.232 179.906 110.691C173.692 108.474 164.989 110.705 160.03 112.373C160.428 112.977 160.826 113.58 161.224 114.184C159.532 114.227 157.837 114.107 156.168 113.828C156.931 116.784 158.026 119.721 159.95 122.091C162.242 124.914 165.539 126.073 169.002 127.181C172.465 128.29 174.635 129.451 178.237 129.944C178.64 129.999 178.047 135.053 178.392 135.27C178.979 135.639 180.909 132.42 181.066 133.095C181.987 137.076 178.087 139.967 179.132 143.917C182.156 142.963 186.512 138.942 188.181 136.051C189.848 133.16 190.75 129.63 190.515 126.3Z" fill="#2D0E0B"/>
<path d="M177.689 135.967C178.137 134.651 180.08 131.806 181.238 131.038C181.578 130.813 181.951 130.616 182.357 130.567C182.762 130.518 183.207 130.64 183.463 130.958C183.66 131.202 183.724 131.526 183.757 131.838C183.89 133.126 183.569 134.457 182.861 135.541C182.153 136.625 181.064 137.456 179.831 137.851C179.136 138.074 178.237 138.096 177.821 137.498C177.522 137.064 177.599 136.485 177.689 135.967Z" fill="#FF9670"/>
<path d="M178.991 134.563C178.925 134.838 178.884 135.114 178.94 135.347C178.996 135.579 179.162 135.766 179.431 135.8C179.69 135.833 180.02 135.72 180.302 135.535C180.585 135.35 180.825 135.1 181.014 134.84C181.353 134.377 181.548 133.843 181.407 133.469C181.267 133.095 180.726 132.95 180.201 133.23C179.854 133.415 179.586 133.733 179.357 134.039" fill="#FC7F51"/>
<path d="M187.27 213.581C187.27 213.581 196.735 228.201 197.959 245.272C199.185 262.344 195.449 371.492 195.449 371.492L173.19 372.286C173.19 372.286 174.873 277.181 172.757 265.384L151.72 371.505L129.254 370.892C129.254 370.892 148.099 226.388 155.547 214.713L187.27 213.581Z" fill="#400E09"/>
<g opacity="0.5">
<path d="M168.126 231.897C167.659 234.945 167.452 238.03 167.539 241.113C167.614 243.782 167.898 246.638 169.529 248.858C170.321 249.935 171.355 250.786 172.618 251.243C172.788 251.304 172.986 251.173 173.03 251.009C174.636 245.029 173.917 238.76 174.993 232.702C175.068 232.28 174.423 232.1 174.348 232.524C173.272 238.581 173.989 244.856 172.384 250.832C172.521 250.754 172.659 250.676 172.796 250.599C170.527 249.777 169.206 247.536 168.665 245.295C168.348 243.98 168.254 242.624 168.212 241.276C168.167 239.844 168.184 238.412 168.261 236.982C168.35 235.339 168.52 233.702 168.77 232.075C168.836 231.653 168.191 231.472 168.126 231.897Z" fill="#F3D1A4"/>
</g>
<g opacity="0.5">
<path d="M182.307 230.892C185.22 235.437 188.4 240.237 193.595 242.366C193.993 242.53 194.166 241.883 193.772 241.721C188.763 239.669 185.687 234.928 182.884 230.555C182.653 230.193 182.073 230.528 182.307 230.892Z" fill="#F3D1A4"/>
</g>
<g opacity="0.5">
<path d="M150.056 239.366C152.292 238.353 154.081 236.621 155.713 234.827C157.479 232.885 159.093 230.805 160.542 228.616C160.78 228.256 160.201 227.921 159.964 228.278C158.545 230.42 156.969 232.453 155.239 234.354C153.641 236.11 151.907 237.797 149.718 238.788C149.327 238.966 149.667 239.542 150.056 239.366Z" fill="#F3D1A4"/>
</g>
<g opacity="0.5">
<path d="M174.186 269.834C175.771 282.654 176.96 295.524 177.745 308.419C178.527 321.248 178.911 334.102 178.897 346.955C178.889 354.197 178.754 361.439 178.494 368.677C178.479 369.107 179.148 369.107 179.163 368.677C179.626 355.766 179.691 342.842 179.352 329.928C179.014 317.079 178.279 304.241 177.147 291.438C176.509 284.224 175.744 277.021 174.855 269.834C174.802 269.412 174.132 269.407 174.186 269.834Z" fill="#F3D1A4"/>
</g>
<g opacity="0.5">
<path d="M145.457 366.21C146.188 359.35 147.311 352.537 148.659 345.771C150.007 338.999 151.578 332.274 153.2 325.563C154.75 319.147 156.299 312.729 157.962 306.341C159.592 300.076 161.356 293.841 163.442 287.712C165.529 281.577 167.942 275.546 170.85 269.751C171.217 269.023 171.59 268.299 171.971 267.578C172.172 267.198 171.594 266.859 171.393 267.24C168.366 272.971 165.837 278.954 163.66 285.056C161.465 291.208 159.623 297.48 157.941 303.79C156.238 310.184 154.687 316.617 153.123 323.045C151.49 329.754 149.891 336.473 148.494 343.236C147.098 349.986 145.905 356.783 145.081 363.63C144.978 364.49 144.881 365.35 144.789 366.212C144.742 366.639 145.412 366.635 145.457 366.21Z" fill="#F3D1A4"/>
</g>
<path d="M156.178 156.026C153.203 157.083 150.99 160.232 149.102 163.372C145.788 168.884 142.92 174.838 140.559 181.109C140.385 181.574 140.208 182.09 140.311 182.589C140.417 183.102 140.786 183.441 141.13 183.735C145.529 187.491 150.024 191.061 154.607 194.434C154.848 194.611 155.146 194.79 155.388 194.617C155.585 194.477 155.656 194.164 155.707 193.884C157.783 182.477 157.406 170.601 157.017 158.898" fill="#1E976F"/>
<path d="M192.651 155.379C196.475 156.436 199.318 159.584 201.745 162.723C206.004 168.235 209.69 174.19 212.724 180.46C212.948 180.925 213.176 181.442 213.043 181.941C212.906 182.454 212.433 182.793 211.99 183.086C206.337 186.843 200.559 190.412 194.67 193.785C194.36 193.963 193.977 194.142 193.665 193.969C193.413 193.829 193.322 193.516 193.256 193.235C190.588 181.829 191.073 169.953 191.573 158.249" fill="#1E976F"/>
<path d="M168.288 151.547C170.634 152.489 175.404 152.908 177.77 152.018C178.334 151.807 178.897 151.54 179.5 151.529C179.934 151.521 180.359 151.646 180.775 151.771C184.433 152.865 188.092 153.959 191.75 155.053C192.261 155.206 192.802 155.378 193.142 155.788C193.482 156.198 193.55 156.762 193.605 157.29C193.983 160.917 194.361 164.543 194.739 168.168C195.072 171.357 195.405 174.551 195.445 177.758C195.485 180.948 195.234 184.133 195.038 187.317C194.233 200.361 194.33 213.441 194.182 226.509C194.176 227.06 194.129 227.694 193.685 228.021C193.459 228.187 193.171 228.237 192.894 228.281C178.859 230.507 164.534 228.691 150.441 226.873C150.689 223.527 150.936 220.17 150.75 216.82C150.577 213.699 151.287 201.365 151.049 198.249C150.623 192.665 149.937 196.306 150.511 190.736C151.594 180.208 152.678 169.682 153.763 159.155C153.844 158.366 153.939 157.539 154.397 156.89C154.875 156.212 155.669 155.842 156.432 155.515C160.265 153.869 164.235 152.541 168.288 151.547Z" fill="#1E976F"/>
<g opacity="0.5">
<path d="M194.313 207.118C193.538 210.85 192.608 214.811 190.431 218.004C186.776 223.366 179.125 223.789 173.224 224.119C167.263 224.452 158.965 225.048 154.228 220.685C152.663 219.244 151.552 217.54 150.721 215.688C150.723 216.138 150.732 216.521 150.748 216.819C150.935 220.169 150.686 223.526 150.439 226.872C164.532 228.69 178.857 230.506 192.892 228.28C193.169 228.236 193.457 228.186 193.684 228.02C194.128 227.694 194.174 227.06 194.18 226.508C194.254 219.971 194.268 213.431 194.363 206.893C194.349 206.969 194.329 207.043 194.313 207.118Z" fill="#06593B"/>
</g>
<g opacity="0.5">
<path d="M212.725 180.461C210.109 175.054 207.005 169.884 203.47 165.028C204.478 168.362 204.918 171.922 205.123 175.273C205.531 181.969 200.992 187.595 196.64 192.637C201.848 189.602 206.972 186.423 211.992 183.087C212.434 182.794 212.908 182.455 213.045 181.941C213.176 181.442 212.949 180.925 212.725 180.461Z" fill="#06593B"/>
</g>
<path d="M143.273 181.936C143.791 180.596 144.396 179.291 145.081 178.027C145.287 177.648 144.709 177.31 144.504 177.69C143.791 179.004 143.166 180.364 142.628 181.759C142.563 181.928 142.7 182.126 142.861 182.171C143.05 182.221 143.208 182.105 143.273 181.936Z" fill="#06593B"/>
<path d="M193.253 187.313C194.073 188.875 194.828 190.47 195.515 192.095C195.585 192.263 195.83 192.296 195.972 192.215C196.145 192.116 196.161 191.923 196.092 191.757C195.405 190.132 194.65 188.537 193.83 186.975C193.629 186.594 193.053 186.932 193.253 187.313Z" fill="#06593B"/>
<path d="M196.591 185.15C197.5 186.645 198.318 188.194 199.042 189.787C199.22 190.178 199.796 189.838 199.62 189.449C198.895 187.856 198.077 186.308 197.169 184.812C196.946 184.445 196.368 184.78 196.591 185.15Z" fill="#06593B"/>
<path d="M200.257 182.373C200.81 183.973 201.494 185.525 202.303 187.011C202.509 187.389 203.087 187.052 202.881 186.673C202.099 185.237 201.437 183.741 200.903 182.196C200.762 181.79 200.116 181.964 200.257 182.373Z" fill="#06593B"/>
<path d="M203.576 180.362C204.347 181.646 205.04 182.975 205.652 184.342C205.726 184.508 205.966 184.547 206.11 184.462C206.28 184.363 206.304 184.17 206.23 184.004C205.618 182.637 204.925 181.308 204.153 180.024C203.932 179.656 203.354 179.993 203.576 180.362Z" fill="#06593B"/>
<path d="M207.743 178.18C208.44 179.369 209.063 180.603 209.597 181.876C209.667 182.042 209.819 182.162 210.009 182.109C210.166 182.067 210.313 181.865 210.242 181.698C209.687 180.371 209.049 179.083 208.321 177.842C208.103 177.471 207.524 177.808 207.743 178.18Z" fill="#06593B"/>
<path d="M153.113 220.339C152.923 222.129 152.732 223.918 152.543 225.708C152.497 226.135 153.167 226.133 153.211 225.708C153.401 223.919 153.592 222.129 153.781 220.339C153.827 219.912 153.157 219.914 153.113 220.339Z" fill="#06593B"/>
<path d="M157.667 225.895C157.988 224.061 158.168 222.205 158.199 220.343C158.206 219.912 157.538 219.912 157.531 220.343C157.5 222.145 157.332 223.941 157.022 225.717C156.949 226.138 157.593 226.319 157.667 225.895Z" fill="#06593B"/>
<path d="M162.392 226.307C162.526 224.317 162.662 222.328 162.797 220.338C162.825 219.908 162.157 219.91 162.128 220.338C161.993 222.327 161.858 224.317 161.723 226.307C161.694 226.736 162.363 226.734 162.392 226.307Z" fill="#06593B"/>
<path d="M168.121 226.702C167.948 224.662 168.098 222.614 168.579 220.623C168.679 220.204 168.035 220.026 167.934 220.446C167.44 222.492 167.274 224.605 167.452 226.703C167.488 227.127 168.158 227.132 168.121 226.702Z" fill="#06593B"/>
<path d="M173.181 227.397C173.257 225.246 173.256 223.091 173.177 220.939C173.161 220.51 172.492 220.509 172.508 220.939C172.588 223.091 172.589 225.246 172.513 227.397C172.497 227.827 173.167 227.827 173.181 227.397Z" fill="#06593B"/>
<path d="M179.069 227.101C179.312 225.223 179.396 223.329 179.317 221.437C179.299 221.008 178.63 221.006 178.648 221.437C178.726 223.329 178.643 225.223 178.4 227.101C178.376 227.282 178.57 227.434 178.735 227.436C178.934 227.438 179.046 227.279 179.069 227.101Z" fill="#06593B"/>
<path d="M183.947 227.598C184.088 225.51 184.23 223.421 184.37 221.333C184.399 220.903 183.731 220.904 183.702 221.333C183.561 223.421 183.419 225.51 183.279 227.598C183.249 228.028 183.918 228.026 183.947 227.598Z" fill="#06593B"/>
<path d="M189.116 221.388C189.116 223.24 189.116 225.091 189.116 226.943C189.116 227.307 189.785 227.308 189.785 226.943C189.785 225.091 189.785 223.24 189.785 221.388C189.785 221.023 189.116 221.022 189.116 221.388Z" fill="#06593B"/>
<path d="M165.941 156.092C166.706 155.217 167.417 154.295 168.07 153.334C168.172 153.184 168.099 152.963 167.95 152.877C167.785 152.78 167.595 152.847 167.493 152.996C166.871 153.911 166.196 154.786 165.468 155.619C165.349 155.756 165.335 155.958 165.468 156.092C165.59 156.213 165.822 156.228 165.941 156.092Z" fill="#06593B"/>
<path d="M170.137 154.759C170.005 155.853 169.872 156.945 169.74 158.038C169.719 158.218 169.91 158.373 170.075 158.373C170.274 158.373 170.388 158.218 170.41 158.038C170.543 156.945 170.675 155.853 170.807 154.759C170.829 154.579 170.637 154.424 170.472 154.424C170.273 154.424 170.159 154.579 170.137 154.759Z" fill="#06593B"/>
<path d="M173.662 155.14C173.863 156.228 173.973 157.33 173.999 158.436C174.008 158.866 174.678 158.867 174.667 158.436C174.641 157.27 174.519 156.109 174.307 154.962C174.275 154.785 174.059 154.683 173.895 154.729C173.708 154.779 173.629 154.961 173.662 155.14Z" fill="#06593B"/>
<path d="M177.042 154.33C177.637 155.323 178.163 156.358 178.602 157.429C178.67 157.596 178.824 157.715 179.014 157.663C179.172 157.619 179.316 157.42 179.247 157.251C178.785 156.125 178.245 155.036 177.619 153.993C177.398 153.623 176.82 153.959 177.042 154.33Z" fill="#06593B"/>
<path d="M180.027 152.981C181.22 153.775 182.314 154.706 183.294 155.751C183.589 156.066 184.061 155.592 183.766 155.278C182.748 154.192 181.604 153.228 180.365 152.403C180.006 152.163 179.67 152.743 180.027 152.981Z" fill="#06593B"/>
<path d="M154.43 158.537C156.111 151.56 157.621 147.13 161.285 140.96C161.659 140.33 162.401 139.617 162.998 140.043C163.44 140.358 163.346 141.03 163.205 141.554C162.754 143.225 162.303 144.896 161.852 146.566C161.742 146.974 161.631 147.394 161.685 147.813C161.835 148.966 163.084 149.572 164.125 150.089C165.167 150.605 166.306 151.575 165.989 152.694C165.857 153.161 165.491 153.517 165.156 153.87C162.596 156.567 161.229 160.196 160.496 163.843C159.764 167.488 157.955 176.233 157.455 179.917C156.197 189.194 154.306 196.083 148.29 200.719C147.532 201.302 146.295 201.574 145.389 201.265C145.002 201.133 144.701 200.828 144.436 200.518C142.188 197.889 141.467 194.219 141.769 190.773C142.07 187.328 143.29 184.037 144.546 180.815C146.919 174.724 151.359 166.88 154.43 158.537Z" fill="#FF9670"/>
<path d="M213.76 202.548C212.397 196.728 210.439 191.049 207.955 185.612L197.633 191.996C199.079 195.142 200.427 198.333 201.662 201.568C202.225 203.041 202.774 204.596 202.555 206.157C202.388 207.341 201.792 208.415 201.196 209.452C196.762 217.162 191.73 224.529 186.161 231.465C185.838 231.868 185.495 232.321 185.521 232.836C185.541 233.223 185.769 233.565 185.987 233.884C186.926 235.253 187.865 236.622 188.803 237.991C188.965 238.227 189.169 238.488 189.455 238.496C189.727 238.505 189.942 238.28 190.119 238.075C194.615 232.842 199.111 227.608 203.607 222.374C206.908 218.532 210.233 214.654 212.683 210.22C213.412 208.9 214.072 207.494 214.183 205.99C214.269 204.832 214.025 203.677 213.76 202.548Z" fill="#FF9670"/>
</svg>
