<svg width="565" height="486" viewBox="0 0 565 486" fill="none" xmlns="http://www.w3.org/2000/svg">
<path d="M0 283C0 126.98 126.48 0.5 282.5 0.5C438.52 0.5 565 126.98 565 283V485.5H0V283Z" fill="url(#paint0_linear_75_2933)"/>
<path d="M295.689 275.178C284.585 267.405 283.515 266.405 277.899 255.998L272.564 266.891C295.409 273.326 315.116 294.91 332.308 311.272C349.911 328.026 382.441 352.698 387.211 375.947C393.536 359.935 403.313 362 414.716 349.102C376.811 338.621 323.309 294.511 295.689 275.178Z" fill="#C5FCFF"/>
<path d="M348.723 392.549C351.448 385.069 360.86 381.554 368.119 384.825C368.067 383.693 368.015 382.562 367.962 381.431C368.645 376.422 371.418 371.732 375.477 368.72C379.537 365.707 384.829 364.412 389.82 365.209C390.249 359.61 396.095 355.057 401.628 356.013C400.703 352.051 402.284 347.614 405.507 345.13C408.73 342.646 413.423 342.247 417.019 344.151C422.751 340.546 430.709 340.912 436.086 345.028C441.463 349.144 443.893 356.731 441.909 363.205C450.614 369.862 453.758 382.849 449.061 392.751" fill="#C5FCFF"/>
<path d="M265.727 263.677L281.018 253.273C286.504 252.552 289.43 257.973 289.202 261.873C291.525 260.667 294.603 261.136 296.461 262.98C298.319 264.823 298.812 267.898 297.624 270.23C300.748 270.385 303.354 273.613 302.847 276.7C302.339 279.787 298.837 282.011 295.827 281.158C293.841 280.595 292.223 278.951 290.172 278.718C288.248 278.499 286.446 279.567 284.602 280.156C280.02 281.619 274.779 279.974 271.322 276.629C267.865 273.285 266.073 268.474 265.727 263.677Z" fill="#C5FCFF"/>
<path d="M275.542 257.149C277.323 257.638 279 258.492 280.452 259.632C281.401 260.377 280.836 261.906 279.63 261.87L279.598 261.869C281.456 263.164 283.229 264.581 284.902 266.108C285.97 267.083 285.245 268.859 283.8 268.8C278.136 268.566 272.555 266.243 268.471 262.3L275.542 257.149Z" fill="#63F6FF"/>
<path d="M248.276 258.428C248.276 258.446 248.277 258.487 248.279 258.549C248.527 265.606 251.978 272.166 257.638 276.389L261.187 279.038L261.55 268.333L248.276 258.428Z" fill="#005B61"/>
<path d="M263.3 238.294C263.316 238.289 263.356 238.279 263.415 238.263C270.158 236.517 277.329 237.937 282.912 242.102L286.413 244.715L276.393 248.064L263.3 238.294Z" fill="#005B61"/>
<path d="M221.029 222.425C222.218 220.831 228.525 220.976 237.438 223.389C246.215 225.765 252.239 230.041 252.239 230.041L281.861 252.144L276.037 259.949L272.661 264.473L266.837 272.278L239.956 252.22C237.33 250.26 234.886 248.064 232.68 245.641C230.783 243.557 228.572 240.881 226.625 237.88C221.618 230.165 219.84 224.018 221.029 222.425Z" fill="#F0FDFF"/>
<path d="M262.178 268.485C262.207 268.507 265.586 264.082 269.725 258.603C273.865 253.122 277.196 248.663 277.168 248.641C277.138 248.619 273.76 253.043 269.62 258.524C265.481 264.003 262.149 268.463 262.178 268.485Z" fill="#3A4B4C"/>
<path d="M263.142 269.066C263.172 269.088 266.55 264.664 270.689 259.185C274.829 253.704 278.161 249.244 278.132 249.222C278.103 249.2 274.724 253.624 270.584 259.105C266.446 264.584 263.113 269.044 263.142 269.066Z" fill="#3A4B4C"/>
<path d="M264.078 269.789C264.107 269.81 267.486 265.386 271.625 259.907C275.765 254.426 279.096 249.966 279.067 249.945C279.038 249.923 275.66 254.347 271.52 259.828C267.381 265.307 264.049 269.767 264.078 269.789Z" fill="#3A4B4C"/>
<path d="M265.014 270.511C265.043 270.533 268.422 266.108 272.561 260.629C276.7 255.148 280.032 250.689 280.003 250.667C279.974 250.645 276.596 255.069 272.456 260.55C268.317 266.029 264.985 270.49 265.014 270.511Z" fill="#3A4B4C"/>
<path d="M265.949 271.235C265.978 271.256 269.357 266.832 273.496 261.353C277.636 255.872 280.967 251.412 280.939 251.391C280.909 251.369 277.531 255.793 273.391 261.274C269.252 266.752 265.92 271.213 265.949 271.235Z" fill="#3A4B4C"/>
<path d="M255.78 248.417C255.777 248.419 255.818 248.462 255.902 248.542C255.984 248.626 256.118 248.726 256.286 248.866C256.625 249.14 257.123 249.524 257.743 249.994C258.982 250.934 260.709 252.212 262.624 253.613C264.54 255.014 266.282 256.271 267.547 257.176C268.172 257.619 268.682 257.98 269.049 258.241C269.22 258.358 269.357 258.452 269.462 258.525C269.557 258.588 269.609 258.62 269.611 258.616C269.614 258.613 269.568 258.574 269.478 258.503C269.376 258.425 269.244 258.324 269.08 258.199C268.718 257.93 268.216 257.557 267.602 257.1C266.337 256.172 264.61 254.906 262.702 253.507C260.793 252.11 259.065 250.846 257.799 249.92C257.183 249.465 256.681 249.093 256.318 248.826C256.147 248.693 256.005 248.597 255.921 248.523C255.833 248.451 255.784 248.414 255.78 248.417Z" fill="#45A3A9"/>
<path d="M248.276 258.428C248.305 258.45 251.667 254.001 255.784 248.492C259.902 242.981 263.216 238.498 263.187 238.476C263.158 238.454 259.797 242.903 255.679 248.413C251.561 253.922 248.247 258.406 248.276 258.428Z" fill="#45A3A9"/>
<path d="M264.345 257.32C264.343 257.313 264.274 257.319 264.166 257.377C264.059 257.435 263.915 257.559 263.827 257.767C263.738 257.966 263.722 258.28 263.914 258.525C264.092 258.765 264.439 258.933 264.79 258.842C265.139 258.742 265.352 258.42 265.384 258.123C265.424 257.814 265.252 257.552 265.073 257.426C264.892 257.292 264.705 257.259 264.584 257.263C264.46 257.268 264.398 257.298 264.4 257.305C264.402 257.316 264.467 257.303 264.581 257.314C264.694 257.325 264.86 257.371 265.015 257.5C265.169 257.624 265.304 257.849 265.263 258.109C265.231 258.361 265.04 258.635 264.755 258.715C264.469 258.791 264.166 258.652 264.01 258.451C263.843 258.248 263.844 257.986 263.914 257.8C263.982 257.611 264.101 257.486 264.193 257.42C264.286 257.353 264.349 257.331 264.345 257.32Z" fill="#45A3A9"/>
<path d="M258.541 253.155C258.539 253.148 258.47 253.153 258.361 253.212C258.255 253.27 258.111 253.394 258.023 253.602C257.934 253.801 257.918 254.114 258.11 254.36C258.288 254.599 258.635 254.767 258.986 254.677C259.335 254.576 259.548 254.255 259.58 253.958C259.62 253.648 259.448 253.387 259.269 253.261C259.088 253.127 258.901 253.093 258.78 253.098C258.656 253.102 258.594 253.133 258.596 253.139C258.598 253.15 258.663 253.137 258.778 253.149C258.89 253.16 259.056 253.205 259.212 253.334C259.365 253.459 259.5 253.684 259.46 253.944C259.427 254.197 259.236 254.47 258.952 254.55C258.665 254.626 258.362 254.488 258.206 254.286C258.039 254.083 258.04 253.821 258.109 253.635C258.177 253.446 258.297 253.321 258.389 253.255C258.482 253.187 258.544 253.165 258.541 253.155Z" fill="#45A3A9"/>
<path d="M286.024 271.805C286.674 271.559 287.489 271.919 287.747 272.564C288.005 273.21 287.661 274.031 287.02 274.301C286.379 274.571 285.552 274.242 285.27 273.606C284.989 272.97 285.302 272.137 285.933 271.843" fill="#63F6FF"/>
<path d="M234.737 239.76C235.997 243.288 239.879 245.126 243.406 243.866C246.934 242.606 248.772 238.725 247.512 235.197C246.252 231.67 242.371 229.832 238.843 231.092C235.315 232.352 233.477 236.233 234.737 239.76Z" fill="white"/>
<path d="M234.737 239.76C234.778 239.75 234.535 239.19 234.437 238.124C234.343 237.078 234.481 235.441 235.534 233.839C236.058 233.053 236.795 232.281 237.766 231.731C238.732 231.19 239.903 230.811 241.156 230.838C241.78 230.834 242.42 230.934 243.043 231.127C243.67 231.311 244.281 231.598 244.839 231.985C245.973 232.734 246.876 233.894 247.373 235.246C247.845 236.606 247.882 238.076 247.479 239.374C247.293 240.027 247.002 240.637 246.633 241.176C246.274 241.72 245.843 242.204 245.357 242.596C244.405 243.411 243.258 243.86 242.167 244.053C241.068 244.243 240.008 244.113 239.105 243.837C237.276 243.265 236.132 242.086 235.542 241.217C234.942 240.329 234.775 239.743 234.737 239.76C234.728 239.764 234.776 239.905 234.876 240.172C234.923 240.307 234.988 240.471 235.09 240.653C235.185 240.839 235.289 241.058 235.447 241.28C236.017 242.183 237.164 243.418 239.042 244.035C239.969 244.333 241.065 244.48 242.206 244.294C243.338 244.104 244.533 243.647 245.53 242.804C246.038 242.398 246.49 241.897 246.867 241.332C247.253 240.771 247.559 240.137 247.755 239.456C248.179 238.103 248.144 236.565 247.65 235.146C247.132 233.736 246.185 232.523 245 231.745C244.417 231.344 243.778 231.046 243.125 230.858C242.474 230.66 241.808 230.558 241.157 230.566C239.853 230.546 238.638 230.949 237.643 231.519C236.642 232.099 235.888 232.906 235.359 233.724C234.297 235.392 234.192 237.074 234.323 238.134C234.342 238.406 234.399 238.64 234.444 238.845C234.481 239.05 234.534 239.219 234.584 239.353C234.675 239.625 234.728 239.764 234.737 239.76Z" fill="#005B61"/>
<path d="M221.029 222.425C222.218 220.831 228.525 220.976 237.438 223.389L226.625 237.88C221.618 230.165 219.84 224.018 221.029 222.425Z" fill="#005B61"/>
<path d="M221.029 222.425C221.029 222.425 220.966 222.524 220.851 222.729C220.762 222.944 220.676 223.285 220.652 223.742C220.613 224.656 220.851 225.999 221.384 227.651C222.47 230.949 224.724 235.524 228.413 240.621C230.292 243.14 232.509 245.806 235.209 248.38C236.562 249.661 238.033 250.919 239.623 252.121C241.216 253.313 242.859 254.542 244.547 255.806C251.304 260.855 258.792 266.449 266.75 272.394L266.866 272.482L266.954 272.365C269.365 269.133 271.893 265.748 274.466 262.3C277.039 258.851 279.566 255.463 281.977 252.231L282.065 252.114L281.948 252.027C273.98 246.089 266.484 240.503 259.719 235.461C258.028 234.202 256.382 232.977 254.786 231.789C253.988 231.195 253.203 230.61 252.43 230.035C251.638 229.472 250.825 228.984 250.018 228.516C246.784 226.658 243.594 225.289 240.622 224.263C237.636 223.271 234.876 222.614 232.443 222.137C230.007 221.673 227.889 221.403 226.152 221.345C224.418 221.286 223.062 221.416 222.19 221.697C221.98 221.786 221.785 221.842 221.635 221.929C221.49 222.024 221.356 222.088 221.271 222.167C221.106 222.336 221.029 222.425 221.029 222.425C221.029 222.425 221.121 222.347 221.287 222.189C221.374 222.115 221.508 222.056 221.653 221.967C221.802 221.884 221.997 221.833 222.206 221.75C223.072 221.489 224.421 221.376 226.147 221.452C227.876 221.526 229.986 221.809 232.413 222.287C234.837 222.777 237.59 223.447 240.559 224.447C243.516 225.481 246.689 226.856 249.903 228.715C250.703 229.182 251.516 229.673 252.291 230.228C253.062 230.805 253.846 231.391 254.642 231.987C256.236 233.179 257.879 234.407 259.567 235.67C266.325 240.719 273.814 246.315 281.773 252.262L281.744 252.058C279.331 255.29 276.803 258.676 274.229 262.125C271.657 265.574 269.13 268.96 266.72 272.192L266.923 272.163C258.959 266.227 251.464 260.642 244.7 255.601C243.01 254.341 241.365 253.116 239.769 251.927C238.183 250.734 236.717 249.487 235.365 248.215C232.672 245.662 230.449 243.01 228.568 240.507C224.87 235.444 222.594 230.891 221.483 227.619C220.937 225.979 220.684 224.649 220.705 223.744C220.721 223.293 220.796 222.955 220.876 222.74C220.981 222.535 221.029 222.425 221.029 222.425Z" fill="#45A3A9"/>
<path d="M241.681 242.521C241.72 242.515 241.685 241.993 241.567 241.157C241.451 240.32 241.246 239.172 240.995 237.912C240.75 236.709 240.528 235.621 240.338 234.688C240.169 233.864 240.061 233.354 240.019 233.36C239.981 233.365 240.015 233.887 240.133 234.723C240.25 235.56 240.455 236.708 240.706 237.969C240.951 239.171 241.172 240.259 241.362 241.192C241.532 242.016 241.639 242.527 241.681 242.521Z" fill="#005B61"/>
<path d="M242.882 240.927C242.962 240.916 242.811 239.585 242.544 237.954C242.277 236.322 241.995 235.012 241.915 235.028C241.836 235.044 241.987 236.375 242.253 238.001C242.519 239.627 242.801 240.937 242.882 240.927Z" fill="#005B61"/>
<path d="M119.061 332.337V342.864C119.061 343.153 118.827 343.387 118.537 343.387H117.652C117.362 343.387 117.128 343.621 117.128 343.911V344.12C117.128 344.408 117.362 344.643 117.652 344.643H118.537C118.827 344.643 119.061 344.877 119.061 345.167V351.866C119.061 352.155 119.295 352.39 119.585 352.39H154.66C154.949 352.39 155.184 352.155 155.184 351.866V345.865C155.184 345.575 154.949 345.341 154.66 345.341H153.031C152.742 345.341 152.508 345.107 152.508 344.818V344.329C152.508 344.04 152.742 343.806 153.031 343.806H154.66C154.949 343.806 155.184 343.571 155.184 343.282V342.026C155.184 341.737 155.418 341.502 155.707 341.502H155.85C156.139 341.502 156.373 341.268 156.373 340.979C156.373 340.689 156.139 340.455 155.85 340.455H155.484C155.195 340.455 154.961 340.221 154.961 339.931V332.335C154.961 332.046 154.727 331.812 154.438 331.812H119.584C119.295 331.814 119.061 332.048 119.061 332.337Z" fill="#F5F5F5"/>
<path d="M145.59 332.368V351.738C145.59 352.027 145.825 352.261 146.114 352.261H154.66C154.949 352.261 155.184 352.027 155.184 351.738V345.736C155.184 345.447 154.949 345.213 154.66 345.213H153.031C152.742 345.213 152.508 344.978 152.508 344.689V344.339C152.508 344.046 152.748 343.81 153.041 343.816L154.651 343.844C154.944 343.849 155.184 343.614 155.184 343.321V342.075C155.184 341.786 155.418 341.552 155.708 341.552H155.861C156.155 341.552 156.391 341.311 156.386 341.018L156.383 340.863C156.377 340.583 156.152 340.357 155.872 340.35L155.471 340.34C155.187 340.333 154.96 340.1 154.96 339.816V332.339C154.96 332.049 154.725 331.814 154.435 331.815L146.113 331.845C145.824 331.846 145.59 332.08 145.59 332.368Z" fill="#E0E0E0"/>
<path d="M146.274 344.478C146.274 344.549 139.737 344.606 131.677 344.606C123.613 344.606 117.078 344.549 117.078 344.478C117.078 344.407 123.613 344.349 131.677 344.349C139.737 344.349 146.274 344.407 146.274 344.478Z" fill="#E0E0E0"/>
<path d="M146.274 343.302C146.274 343.373 139.737 343.43 131.677 343.43C123.613 343.43 117.078 343.373 117.078 343.302C117.078 343.231 123.613 343.174 131.677 343.174C139.737 343.174 146.274 343.231 146.274 343.302Z" fill="#E0E0E0"/>
<path d="M148.149 340.138C148.149 340.209 141.613 340.266 133.552 340.266C125.488 340.266 118.953 340.208 118.953 340.138C118.953 340.067 125.488 340.01 133.552 340.01C141.613 340.01 148.149 340.067 148.149 340.138Z" fill="#E0E0E0"/>
<path d="M148.33 348.76C148.33 348.831 141.793 348.889 133.732 348.889C125.668 348.889 119.133 348.831 119.133 348.76C119.133 348.69 125.668 348.632 133.732 348.632C141.793 348.632 148.33 348.69 148.33 348.76Z" fill="#E0E0E0"/>
<path d="M121.786 352.341V362.868C121.786 363.157 121.552 363.391 121.262 363.391H120.377C120.088 363.391 119.853 363.626 119.853 363.915V364.124C119.853 364.413 120.088 364.647 120.377 364.647H121.262C121.552 364.647 121.786 364.882 121.786 365.171V371.871C121.786 372.16 122.02 372.394 122.31 372.394H157.385C157.674 372.394 157.908 372.16 157.908 371.871V365.869C157.908 365.58 157.674 365.346 157.385 365.346H155.756C155.467 365.346 155.233 365.111 155.233 364.822V364.334C155.233 364.045 155.467 363.81 155.756 363.81H157.385C157.674 363.81 157.908 363.576 157.908 363.287V362.031C157.908 361.742 158.143 361.508 158.432 361.508H158.574C158.863 361.508 159.097 361.273 159.097 360.984C159.097 360.695 158.863 360.461 158.574 360.461H158.209C157.92 360.461 157.685 360.226 157.685 359.937V352.341C157.685 352.051 157.451 351.817 157.162 351.817H122.309C122.02 351.818 121.786 352.053 121.786 352.341Z" fill="#F5F5F5"/>
<path d="M148.316 352.373V371.742C148.316 372.031 148.55 372.266 148.839 372.266H157.385C157.674 372.266 157.908 372.031 157.908 371.742V365.741C157.908 365.452 157.674 365.217 157.385 365.217H155.756C155.467 365.217 155.233 364.983 155.233 364.694V364.343C155.233 364.051 155.473 363.815 155.766 363.82L157.376 363.849C157.669 363.854 157.909 363.619 157.909 363.326V362.08C157.909 361.791 158.144 361.556 158.433 361.556H158.587C158.88 361.557 159.116 361.316 159.111 361.023L159.108 360.867C159.102 360.587 158.877 360.361 158.597 360.354L158.196 360.344C157.912 360.337 157.685 360.105 157.685 359.821V352.343C157.685 352.053 157.45 351.819 157.16 351.82L148.838 351.849C148.549 351.851 148.316 352.085 148.316 352.373Z" fill="#E0E0E0"/>
<path d="M148.999 364.482C148.999 364.553 142.463 364.611 134.402 364.611C126.338 364.611 119.803 364.553 119.803 364.482C119.803 364.411 126.338 364.354 134.402 364.354C142.463 364.354 148.999 364.411 148.999 364.482Z" fill="#E0E0E0"/>
<path d="M148.999 363.306C148.999 363.377 142.463 363.435 134.402 363.435C126.338 363.435 119.803 363.377 119.803 363.306C119.803 363.236 126.338 363.178 134.402 363.178C142.463 363.178 148.999 363.236 148.999 363.306Z" fill="#E0E0E0"/>
<path d="M150.874 360.142C150.874 360.213 144.338 360.27 136.277 360.27C128.213 360.27 121.678 360.213 121.678 360.142C121.678 360.071 128.213 360.014 136.277 360.014C144.338 360.014 150.874 360.071 150.874 360.142Z" fill="#E0E0E0"/>
<path d="M151.054 368.765C151.054 368.836 144.518 368.893 136.456 368.893C128.392 368.893 121.858 368.836 121.858 368.765C121.858 368.694 128.392 368.637 136.456 368.637C144.518 368.636 151.054 368.694 151.054 368.765Z" fill="#E0E0E0"/>
<path d="M118.62 372.076V382.603C118.62 382.893 118.386 383.127 118.096 383.127H117.211C116.922 383.127 116.688 383.361 116.688 383.651V383.86C116.688 384.149 116.922 384.383 117.211 384.383H118.096C118.386 384.383 118.62 384.617 118.62 384.907V391.606C118.62 391.896 118.854 392.13 119.143 392.13H154.218C154.508 392.13 154.742 391.896 154.742 391.606V385.605C154.742 385.316 154.507 385.082 154.218 385.082H152.589C152.3 385.082 152.066 384.847 152.066 384.558V384.07C152.066 383.78 152.301 383.546 152.589 383.546H154.218C154.508 383.546 154.742 383.312 154.742 383.023V381.767C154.742 381.478 154.976 381.244 155.265 381.244H155.407C155.697 381.244 155.931 381.009 155.931 380.72C155.931 380.431 155.697 380.196 155.407 380.196H155.042C154.753 380.196 154.519 379.962 154.519 379.673V372.077C154.519 371.788 154.284 371.553 153.996 371.553H119.143C118.854 371.553 118.62 371.787 118.62 372.076Z" fill="#F5F5F5"/>
<path d="M145.149 372.108V391.477C145.149 391.767 145.384 392.001 145.673 392.001H154.218C154.508 392.001 154.742 391.767 154.742 391.477V385.476C154.742 385.186 154.507 384.952 154.218 384.952H152.589C152.3 384.952 152.066 384.718 152.066 384.429V384.079C152.066 383.786 152.306 383.55 152.599 383.555L154.209 383.584C154.502 383.589 154.742 383.354 154.742 383.061V381.815C154.742 381.526 154.977 381.291 155.266 381.292H155.42C155.713 381.292 155.95 381.052 155.944 380.758L155.941 380.603C155.936 380.323 155.711 380.097 155.431 380.09L155.03 380.08C154.746 380.073 154.519 379.84 154.519 379.557V372.079C154.519 371.789 154.284 371.554 153.994 371.555L145.672 371.585C145.383 371.585 145.149 371.819 145.149 372.108Z" fill="#E0E0E0"/>
<path d="M145.833 384.217C145.833 384.288 139.296 384.345 131.236 384.345C123.172 384.345 116.637 384.287 116.637 384.217C116.637 384.146 123.172 384.089 131.236 384.089C139.296 384.089 145.833 384.146 145.833 384.217Z" fill="#E0E0E0"/>
<path d="M145.833 383.041C145.833 383.112 139.296 383.169 131.236 383.169C123.172 383.169 116.637 383.112 116.637 383.041C116.637 382.97 123.172 382.913 131.236 382.913C139.296 382.913 145.833 382.97 145.833 383.041Z" fill="#E0E0E0"/>
<path d="M147.708 379.877C147.708 379.948 141.172 380.005 133.111 380.005C125.047 380.005 118.512 379.947 118.512 379.877C118.512 379.806 125.047 379.749 133.111 379.749C141.172 379.749 147.708 379.806 147.708 379.877Z" fill="#E0E0E0"/>
<path d="M147.888 388.499C147.888 388.57 141.352 388.628 133.29 388.628C125.226 388.628 118.691 388.57 118.691 388.499C118.691 388.429 125.226 388.371 133.29 388.371C141.352 388.371 147.888 388.429 147.888 388.499Z" fill="#E0E0E0"/>
<path d="M122.278 272.774V283.301C122.278 283.59 122.044 283.825 121.755 283.825H120.869C120.58 283.825 120.346 284.059 120.346 284.348V284.557C120.346 284.846 120.58 285.081 120.869 285.081H121.755C122.044 285.081 122.278 285.315 122.278 285.604V292.303C122.278 292.592 122.512 292.827 122.802 292.827H157.877C158.166 292.827 158.401 292.592 158.401 292.303V286.302C158.401 286.013 158.166 285.778 157.877 285.778H156.248C155.959 285.778 155.725 285.544 155.725 285.255V284.767C155.725 284.477 155.959 284.243 156.248 284.243H157.877C158.166 284.243 158.401 284.009 158.401 283.72V282.464C158.401 282.175 158.635 281.94 158.924 281.94H159.066C159.356 281.94 159.59 281.706 159.59 281.417C159.59 281.128 159.355 280.893 159.066 280.893H158.701C158.412 280.893 158.178 280.659 158.178 280.37V272.773C158.178 272.484 157.943 272.25 157.654 272.25H122.801C122.512 272.25 122.278 272.485 122.278 272.774Z" fill="#F5F5F5"/>
<path d="M148.807 272.805V292.174C148.807 292.463 149.042 292.697 149.331 292.697H157.876C158.166 292.697 158.4 292.463 158.4 292.174V286.173C158.4 285.883 158.166 285.649 157.876 285.649H156.248C155.958 285.649 155.724 285.415 155.724 285.126V284.776C155.724 284.483 155.964 284.247 156.257 284.252L157.867 284.281C158.16 284.286 158.4 284.05 158.4 283.758V282.512C158.4 282.223 158.635 281.988 158.924 281.988H159.078C159.371 281.989 159.608 281.748 159.602 281.455L159.599 281.3C159.594 281.019 159.369 280.793 159.089 280.786L158.687 280.776C158.404 280.769 158.177 280.537 158.177 280.253V272.775C158.177 272.486 157.941 272.251 157.652 272.252L149.329 272.282C149.041 272.283 148.807 272.517 148.807 272.805Z" fill="#E0E0E0"/>
<path d="M149.491 284.914C149.491 284.985 142.955 285.042 134.894 285.042C126.83 285.042 120.295 284.985 120.295 284.914C120.295 284.843 126.83 284.786 134.894 284.786C142.955 284.786 149.491 284.844 149.491 284.914Z" fill="#E0E0E0"/>
<path d="M149.491 283.738C149.491 283.809 142.955 283.867 134.894 283.867C126.83 283.867 120.295 283.809 120.295 283.738C120.295 283.668 126.83 283.61 134.894 283.61C142.955 283.61 149.491 283.668 149.491 283.738Z" fill="#E0E0E0"/>
<path d="M151.366 280.574C151.366 280.645 144.83 280.703 136.768 280.703C128.704 280.703 122.17 280.645 122.17 280.574C122.17 280.503 128.704 280.446 136.768 280.446C144.83 280.446 151.366 280.504 151.366 280.574Z" fill="#E0E0E0"/>
<path d="M151.547 289.197C151.547 289.268 145.01 289.325 136.949 289.325C128.885 289.325 122.351 289.268 122.351 289.197C122.351 289.126 128.885 289.069 136.949 289.069C145.01 289.069 151.547 289.126 151.547 289.197Z" fill="#E0E0E0"/>
<path d="M125.003 292.778V303.305C125.003 303.594 124.769 303.829 124.479 303.829H123.594C123.305 303.829 123.07 304.063 123.07 304.352V304.562C123.07 304.851 123.305 305.085 123.594 305.085H124.479C124.769 305.085 125.003 305.32 125.003 305.609V312.309C125.003 312.597 125.237 312.832 125.527 312.832H160.602C160.891 312.832 161.125 312.597 161.125 312.309V306.306C161.125 306.017 160.891 305.783 160.602 305.783H158.973C158.684 305.783 158.45 305.548 158.45 305.26V304.771C158.45 304.482 158.684 304.248 158.973 304.248H160.602C160.891 304.248 161.125 304.013 161.125 303.724V302.468C161.125 302.179 161.36 301.945 161.649 301.945H161.792C162.081 301.945 162.315 301.71 162.315 301.422C162.315 301.132 162.081 300.898 161.792 300.898H161.426C161.137 300.898 160.902 300.664 160.902 300.374V292.778C160.902 292.489 160.668 292.254 160.379 292.254H125.526C125.237 292.255 125.003 292.489 125.003 292.778Z" fill="#F5F5F5"/>
<path d="M151.533 292.81V312.179C151.533 312.468 151.767 312.702 152.056 312.702H160.602C160.891 312.702 161.125 312.468 161.125 312.179V306.177C161.125 305.888 160.89 305.654 160.602 305.654H158.973C158.683 305.654 158.45 305.419 158.45 305.13V304.78C158.45 304.487 158.689 304.251 158.982 304.257L160.593 304.285C160.885 304.29 161.125 304.054 161.125 303.762V302.516C161.125 302.227 161.36 301.993 161.649 301.993H161.803C162.096 301.994 162.333 301.753 162.327 301.459L162.324 301.304C162.319 301.024 162.094 300.798 161.814 300.791L161.413 300.781C161.129 300.774 160.902 300.542 160.902 300.258V292.78C160.902 292.49 160.667 292.255 160.377 292.256L152.054 292.286C151.766 292.288 151.533 292.521 151.533 292.81Z" fill="#E0E0E0"/>
<path d="M152.216 304.919C152.216 304.99 145.68 305.047 137.619 305.047C129.555 305.047 123.02 304.989 123.02 304.919C123.02 304.848 129.555 304.79 137.619 304.79C145.68 304.79 152.216 304.848 152.216 304.919Z" fill="#E0E0E0"/>
<path d="M152.216 303.743C152.216 303.814 145.68 303.872 137.619 303.872C129.555 303.872 123.02 303.814 123.02 303.743C123.02 303.672 129.555 303.615 137.619 303.615C145.68 303.615 152.216 303.672 152.216 303.743Z" fill="#E0E0E0"/>
<path d="M154.091 300.579C154.091 300.65 147.555 300.707 139.494 300.707C131.43 300.707 124.895 300.65 124.895 300.579C124.895 300.508 131.43 300.451 139.494 300.451C147.555 300.451 154.091 300.508 154.091 300.579Z" fill="#E0E0E0"/>
<path d="M154.271 309.202C154.271 309.273 147.735 309.33 139.673 309.33C131.609 309.33 125.075 309.272 125.075 309.202C125.075 309.13 131.609 309.073 139.673 309.073C147.735 309.073 154.271 309.13 154.271 309.202Z" fill="#E0E0E0"/>
<path d="M121.837 312.513V323.04C121.837 323.33 121.603 323.563 121.313 323.563H120.428C120.138 323.563 119.904 323.798 119.904 324.087V324.296C119.904 324.585 120.138 324.819 120.428 324.819H121.313C121.603 324.819 121.837 325.054 121.837 325.343V332.043C121.837 332.331 122.071 332.566 122.361 332.566H157.436C157.725 332.566 157.96 332.331 157.96 332.043V326.041C157.96 325.752 157.725 325.517 157.436 325.517H155.807C155.518 325.517 155.283 325.283 155.283 324.994V324.505C155.283 324.217 155.518 323.982 155.807 323.982H157.436C157.725 323.982 157.96 323.748 157.96 323.459V322.203C157.96 321.913 158.194 321.679 158.483 321.679H158.625C158.914 321.679 159.149 321.445 159.149 321.155C159.149 320.866 158.914 320.632 158.625 320.632H158.259C157.97 320.632 157.736 320.398 157.736 320.108V312.512C157.736 312.223 157.502 311.989 157.213 311.989H122.36C122.071 311.99 121.837 312.224 121.837 312.513Z" fill="#F5F5F5"/>
<path d="M148.366 312.545V331.914C148.366 332.203 148.601 332.438 148.89 332.438H157.435C157.725 332.438 157.959 332.203 157.959 331.914V325.912C157.959 325.623 157.725 325.389 157.435 325.389H155.807C155.517 325.389 155.283 325.154 155.283 324.865V324.515C155.283 324.222 155.523 323.986 155.816 323.992L157.426 324.02C157.719 324.025 157.959 323.79 157.959 323.497V322.251C157.959 321.962 158.193 321.728 158.483 321.728H158.636C158.93 321.728 159.166 321.487 159.161 321.194L159.158 321.039C159.152 320.759 158.927 320.533 158.647 320.526L158.246 320.516C157.963 320.509 157.736 320.276 157.736 319.992V312.515C157.736 312.225 157.5 311.99 157.211 311.991L148.888 312.021C148.6 312.022 148.366 312.257 148.366 312.545Z" fill="#E0E0E0"/>
<path d="M149.05 324.654C149.05 324.725 142.514 324.782 134.453 324.782C126.389 324.782 119.853 324.725 119.853 324.654C119.853 324.583 126.388 324.526 134.453 324.526C142.514 324.526 149.05 324.583 149.05 324.654Z" fill="#E0E0E0"/>
<path d="M149.05 323.478C149.05 323.549 142.514 323.606 134.453 323.606C126.389 323.606 119.853 323.549 119.853 323.478C119.853 323.407 126.388 323.35 134.453 323.35C142.514 323.35 149.05 323.407 149.05 323.478Z" fill="#E0E0E0"/>
<path d="M150.925 320.314C150.925 320.385 144.389 320.442 136.328 320.442C128.264 320.442 121.729 320.384 121.729 320.314C121.729 320.243 128.264 320.186 136.328 320.186C144.389 320.186 150.925 320.243 150.925 320.314Z" fill="#E0E0E0"/>
<path d="M151.105 328.936C151.105 329.007 144.569 329.065 136.507 329.065C128.443 329.065 121.908 329.007 121.908 328.936C121.908 328.866 128.443 328.808 136.507 328.808C144.569 328.808 151.105 328.866 151.105 328.936Z" fill="#E0E0E0"/>
<path d="M452.532 392.517C452.532 392.59 376.606 392.648 282.968 392.648C189.297 392.648 113.387 392.589 113.387 392.517C113.387 392.445 189.297 392.386 282.968 392.386C376.606 392.386 452.532 392.445 452.532 392.517Z" fill="#263238"/>
<path d="M294.52 320.852H261.328V392.324H294.52V320.852Z" fill="#45A3A9"/>
<g opacity="0.3">
<path d="M294.52 320.852H284.231V392.324H294.52V320.852Z" fill="black"/>
</g>
<path d="M284.231 392.324C284.154 392.324 284.091 376.504 284.091 356.993C284.091 337.475 284.154 321.658 284.231 321.658C284.309 321.658 284.372 337.475 284.372 356.993C284.372 376.504 284.309 392.324 284.231 392.324Z" fill="#005B61"/>
<path d="M253.986 295.591H220.793V392.26H253.986V295.591Z" fill="#45A3A9"/>
<g opacity="0.3">
<path d="M253.986 295.591H243.697V392.26H253.986V295.591Z" fill="black"/>
</g>
<path d="M243.697 392.26C243.619 392.26 243.556 370.862 243.556 344.473C243.556 318.074 243.619 296.682 243.697 296.682C243.774 296.682 243.837 318.075 243.837 344.473C243.837 370.862 243.774 392.26 243.697 392.26Z" fill="#005B61"/>
<path d="M335.448 341.594H302.256V392.26H335.448V341.594Z" fill="#45A3A9"/>
<g opacity="0.3">
<path d="M335.448 341.594H325.159V392.26H335.448V341.594Z" fill="black"/>
</g>
<path d="M325.159 392.26C325.081 392.26 325.018 381.045 325.018 367.214C325.018 353.378 325.081 342.166 325.159 342.166C325.237 342.166 325.3 353.378 325.3 367.214C325.3 381.045 325.237 392.26 325.159 392.26Z" fill="#005B61"/>
<path d="M375.515 364.614H342.323V392.26H375.515V364.614Z" fill="#45A3A9"/>
<g opacity="0.3">
<path d="M375.515 364.614H365.226V392.26H375.515V364.614Z" fill="black"/>
</g>
<path d="M365.226 392.26C365.148 392.26 365.085 386.14 365.085 378.593C365.085 371.044 365.148 364.926 365.226 364.926C365.304 364.926 365.367 371.044 365.367 378.593C365.367 386.141 365.304 392.26 365.226 392.26Z" fill="#005B61"/>
<path d="M416.025 374.18H382.833V392.26H416.025V374.18Z" fill="#45A3A9"/>
<g opacity="0.3">
<path d="M416.025 374.18H405.736V392.26H416.025V374.18Z" fill="black"/>
</g>
<path d="M405.736 392.26C405.658 392.26 405.595 388.258 405.595 383.322C405.595 378.385 405.658 374.384 405.736 374.384C405.814 374.384 405.877 378.385 405.877 383.322C405.877 388.258 405.814 392.26 405.736 392.26Z" fill="#005B61"/>
<path d="M213.476 263.811H180.283V392.242H213.476V263.811Z" fill="#45A3A9"/>
<g opacity="0.3">
<path d="M213.476 263.811H203.187V392.242H213.476V263.811Z" fill="black"/>
</g>
<path d="M203.187 392.764C203.109 392.764 203.046 364.219 203.046 329.015C203.046 293.799 203.109 265.261 203.187 265.261C203.264 265.261 203.327 293.799 203.327 329.015C203.327 364.219 203.264 392.764 203.187 392.764Z" fill="#005B61"/>
<path d="M172.966 237.745H139.773V392.764H172.966V237.745Z" fill="#45A3A9"/>
<g opacity="0.3">
<path d="M172.966 237.745H162.677V392.764H172.966V237.745Z" fill="black"/>
</g>
<path d="M162.677 392.764C162.599 392.764 162.536 358.45 162.536 316.133C162.536 273.801 162.599 239.495 162.677 239.495C162.754 239.495 162.817 273.801 162.817 316.133C162.817 358.451 162.754 392.764 162.677 392.764Z" fill="#005B61"/>
<path d="M166.115 223.994C175.764 217.462 178.291 204.345 171.759 194.696C165.227 185.047 152.109 182.521 142.461 189.053C132.812 195.585 130.285 208.702 136.817 218.351C143.349 228 156.466 230.526 166.115 223.994Z" fill="#005B61"/>
<path opacity="0.3" d="M166.115 223.994C175.764 217.462 178.291 204.345 171.759 194.696C165.227 185.047 152.109 182.521 142.461 189.053C132.812 195.585 130.285 208.702 136.817 218.351C143.349 228 156.466 230.526 166.115 223.994Z" fill="black"/>
<path d="M166.115 221.664C175.764 215.132 178.291 202.015 171.759 192.366C165.227 182.717 152.109 180.19 142.461 186.722C132.812 193.254 130.285 206.372 136.817 216.02C143.349 225.669 156.466 228.196 166.115 221.664Z" fill="#005B61"/>
<path d="M154.287 218.321C162.092 218.321 168.419 211.994 168.419 204.19C168.419 196.385 162.092 190.058 154.287 190.058C146.483 190.058 140.156 196.385 140.156 204.19C140.156 211.994 146.483 218.321 154.287 218.321Z" fill="white"/>
<path d="M159.176 209.079C161.877 206.379 161.877 202 159.176 199.3C156.476 196.599 152.097 196.599 149.397 199.3C146.696 202 146.696 206.379 149.397 209.079C152.097 211.78 156.476 211.78 159.176 209.079Z" fill="#005B61"/>
<path d="M171.25 186.326L170.676 181.825L175.258 176.922L175.588 181.779L171.25 186.326Z" fill="#455A64"/>
<path d="M181.083 182.744L176.435 182.366L171.776 186.848L176.436 187.346L181.083 182.744Z" fill="#455A64"/>
<path opacity="0.3" d="M155.211 204.088L171.343 191.772C170.795 190.954 170.099 190.132 169.324 189.309L155.211 202.991V204.088Z" fill="black"/>
<path d="M176.008 180.574C173.541 183.073 171.074 185.573 168.607 188.073C164.694 192.038 160.78 196.004 156.866 199.969C155.967 200.881 155.067 201.792 154.168 202.704C153.312 203.57 154.648 204.908 155.504 204.04C157.971 201.541 160.438 199.041 162.905 196.541C166.818 192.576 170.732 188.61 174.646 184.645C175.545 183.733 176.445 182.822 177.344 181.91C178.199 181.044 176.864 179.706 176.008 180.574Z" fill="#263238"/>
<path d="M154.287 177.717C154.215 177.717 154.156 173.68 154.156 168.701C154.156 163.72 154.215 159.684 154.287 159.684C154.36 159.684 154.419 163.72 154.419 168.701C154.419 173.68 154.36 177.717 154.287 177.717Z" fill="#263238"/>
<path d="M167.911 168.309C167.969 168.352 166.527 170.377 164.691 172.83C162.854 175.284 161.318 177.237 161.26 177.194C161.202 177.15 162.644 175.126 164.48 172.672C166.317 170.219 167.853 168.265 167.911 168.309Z" fill="#263238"/>
<path d="M140.501 167.892C140.564 167.857 141.815 170.004 143.295 172.687C144.775 175.371 145.924 177.575 145.86 177.61C145.797 177.644 144.546 175.498 143.065 172.814C141.585 170.131 140.437 167.927 140.501 167.892Z" fill="#263238"/>
<path d="M365.684 223.184L369.709 222.714C371.331 224.361 373.414 225.595 375.824 226.187C382.754 227.89 389.752 223.653 391.455 216.724C393.158 209.794 388.921 202.796 381.991 201.093C375.062 199.39 368.063 203.627 366.36 210.556C365.649 213.45 365.977 216.354 367.1 218.881L367.096 218.875L365.684 223.184Z" fill="white"/>
<path d="M365.684 223.184C365.684 223.184 365.706 223.097 365.762 222.915C365.823 222.719 365.907 222.448 366.017 222.096C366.253 221.35 366.595 220.265 367.04 218.857L367.072 218.756L367.14 218.838C367.14 218.838 367.143 218.842 367.144 218.844L367.046 218.905C366.35 217.357 365.734 215.171 365.942 212.573C366.034 211.28 366.362 209.903 366.942 208.536C367.519 207.17 368.37 205.814 369.515 204.62C370.657 203.426 372.092 202.395 373.744 201.68C375.394 200.964 377.262 200.565 379.189 200.603C383.036 200.641 387.103 202.616 389.541 206.092C390.774 207.859 391.596 209.883 391.836 211.945C392.1 214.002 391.864 216.063 391.226 217.92C390.594 219.782 389.523 221.415 388.247 222.723C386.966 224.033 385.462 225.014 383.914 225.656C380.801 226.944 377.592 226.866 375.123 226.083C372.623 225.315 370.825 223.947 369.668 222.754L369.714 222.77C368.404 222.908 367.393 223.014 366.695 223.088C366.369 223.12 366.115 223.146 365.932 223.164C365.764 223.18 365.684 223.184 365.684 223.184C365.684 223.184 365.779 223.167 365.955 223.144C366.141 223.119 366.399 223.085 366.731 223.041C367.418 222.953 368.413 222.825 369.702 222.659L369.728 222.656L369.748 222.675C370.911 223.843 372.701 225.177 375.174 225.918C377.616 226.673 380.774 226.73 383.83 225.452C385.349 224.815 386.823 223.846 388.077 222.556C389.327 221.269 390.373 219.666 390.989 217.837C391.611 216.015 391.84 213.994 391.58 211.979C391.342 209.958 390.535 207.975 389.327 206.244C386.938 202.838 382.958 200.899 379.184 200.855C377.294 200.815 375.461 201.201 373.839 201.9C372.215 202.598 370.802 203.605 369.675 204.774C368.545 205.943 367.702 207.273 367.127 208.615C366.549 209.957 366.216 211.313 366.118 212.588C365.895 215.15 366.482 217.315 367.153 218.858L367.322 219.248L367.055 218.919C367.053 218.917 367.05 218.913 367.05 218.913L367.15 218.894C366.681 220.275 366.319 221.339 366.071 222.071C365.948 222.426 365.854 222.7 365.786 222.898C365.723 223.084 365.684 223.184 365.684 223.184Z" fill="#45A3A9"/>
<path d="M372.552 214.131L374.143 212.428L377.417 215.144L383.451 208.929L385.037 210.525L377.29 218.33L372.552 214.131Z" fill="#45A3A9"/>
<defs>
<linearGradient id="paint0_linear_75_2933" x1="485.5" y1="175.5" x2="395.506" y2="434.959" gradientUnits="userSpaceOnUse">
<stop stop-color="#C5FCFF" stop-opacity="0.64"/>
<stop offset="1" stop-color="#DCFDFF" stop-opacity="0"/>
</linearGradient>
</defs>
</svg>
